<svg width="326" height="192" viewBox="0 0 326 192" fill="none" xmlns="http://www.w3.org/2000/svg">
  <g filter="url(#filter0_d_624_1653)">
  <rect x="25" y="-20" width="276" height="232" rx="10" fill="white" style="fill:white;fill:white;fill-opacity:1;"/>
  <g clip-path="url(#clip0_624_1653)">
  <path d="M46.5 130C51.7646 130 56 125.765 56 120.5C56 115.235 51.7646 111 46.5 111C41.2354 111 37 115.235 37 120.5C37 125.765 41.2354 130 46.5 130Z" fill="#E9EAED" style="fill:#E9EAED;fill:color(display-p3 0.9137 0.9176 0.9294);fill-opacity:1;"/>
  </g>
  <rect x="63" y="113" width="59" height="14" rx="7" fill="#F6F7F9" style="fill:#F6F7F9;fill:color(display-p3 0.9647 0.9686 0.9765);fill-opacity:1;"/>
  <rect x="129" y="113" width="42" height="14" rx="7" fill="#F6F7F9" style="fill:#F6F7F9;fill:color(display-p3 0.9647 0.9686 0.9765);fill-opacity:1;"/>
  <rect x="178" y="113" width="58" height="14" rx="7" fill="#F6F7F9" style="fill:#F6F7F9;fill:color(display-p3 0.9647 0.9686 0.9765);fill-opacity:1;"/>
  <rect x="243" y="113" width="46" height="14" rx="7" fill="#F6F7F9" style="fill:#F6F7F9;fill:color(display-p3 0.9647 0.9686 0.9765);fill-opacity:1;"/>
  <rect x="63" y="137" width="59" height="14" rx="7" fill="#F6F7F9" style="fill:#F6F7F9;fill:color(display-p3 0.9647 0.9686 0.9765);fill-opacity:1;"/>
  <rect x="129" y="137" width="42" height="14" rx="7" fill="#F6F7F9" style="fill:#F6F7F9;fill:color(display-p3 0.9647 0.9686 0.9765);fill-opacity:1;"/>
  <rect x="178" y="137" width="58" height="14" rx="7" fill="#F6F7F9" style="fill:#F6F7F9;fill:color(display-p3 0.9647 0.9686 0.9765);fill-opacity:1;"/>
  <rect x="243" y="137" width="46" height="14" rx="7" fill="#F6F7F9" style="fill:#F6F7F9;fill:color(display-p3 0.9647 0.9686 0.9765);fill-opacity:1;"/>
  <rect width="19" height="19.0021" rx="9.5" transform="matrix(1 0 0 -1 37 154.002)" fill="#E9EAED" style="fill:#E9EAED;fill:color(display-p3 0.9137 0.9176 0.9294);fill-opacity:1;"/>
  <rect x="63" y="41" width="59" height="14" rx="7" fill="#F6F7F9" style="fill:#F6F7F9;fill:color(display-p3 0.9647 0.9686 0.9765);fill-opacity:1;"/>
  <rect x="129" y="41" width="42" height="14" rx="7" fill="#F6F7F9" style="fill:#F6F7F9;fill:color(display-p3 0.9647 0.9686 0.9765);fill-opacity:1;"/>
  <rect x="178" y="41" width="58" height="14" rx="7" fill="#F6F7F9" style="fill:#F6F7F9;fill:color(display-p3 0.9647 0.9686 0.9765);fill-opacity:1;"/>
  <rect x="243" y="41" width="46" height="14" rx="7" fill="#F6F7F9" style="fill:#F6F7F9;fill:color(display-p3 0.9647 0.9686 0.9765);fill-opacity:1;"/>
  <rect x="37" y="39" width="19" height="19" rx="9.5" fill="#E9EAED" style="fill:#E9EAED;fill:color(display-p3 0.9137 0.9176 0.9294);fill-opacity:1;"/>
  <rect x="63" y="89" width="59" height="14" rx="7" fill="#F6F7F9" style="fill:#F6F7F9;fill:color(display-p3 0.9647 0.9686 0.9765);fill-opacity:1;"/>
  <rect x="129" y="89" width="42" height="14" rx="7" fill="#F6F7F9" style="fill:#F6F7F9;fill:color(display-p3 0.9647 0.9686 0.9765);fill-opacity:1;"/>
  <rect x="178" y="89" width="58" height="14" rx="7" fill="#F6F7F9" style="fill:#F6F7F9;fill:color(display-p3 0.9647 0.9686 0.9765);fill-opacity:1;"/>
  <rect x="243" y="89" width="46" height="14" rx="7" fill="#F6F7F9" style="fill:#F6F7F9;fill:color(display-p3 0.9647 0.9686 0.9765);fill-opacity:1;"/>
  <rect x="37" y="87" width="19" height="19" rx="9.5" fill="#E9EAED" style="fill:#E9EAED;fill:color(display-p3 0.9137 0.9176 0.9294);fill-opacity:1;"/>
  <rect x="63" y="65" width="59" height="14" rx="7" fill="#F6F7F9" style="fill:#F6F7F9;fill:color(display-p3 0.9647 0.9686 0.9765);fill-opacity:1;"/>
  <rect x="129" y="65" width="42" height="14" rx="7" fill="#F6F7F9" style="fill:#F6F7F9;fill:color(display-p3 0.9647 0.9686 0.9765);fill-opacity:1;"/>
  <rect x="178" y="65" width="58" height="14" rx="7" fill="#F6F7F9" style="fill:#F6F7F9;fill:color(display-p3 0.9647 0.9686 0.9765);fill-opacity:1;"/>
  <rect x="243" y="65" width="46" height="14" rx="7" fill="#F6F7F9" style="fill:#F6F7F9;fill:color(display-p3 0.9647 0.9686 0.9765);fill-opacity:1;"/>
  <rect x="37" y="63" width="19" height="19" rx="9.5" fill="#E9EAED" style="fill:#E9EAED;fill:color(display-p3 0.9137 0.9176 0.9294);fill-opacity:1;"/>
  <rect x="63" y="-7" width="59" height="14" rx="7" fill="#F6F7F9" style="fill:#F6F7F9;fill:color(display-p3 0.9647 0.9686 0.9765);fill-opacity:1;"/>
  <rect x="129" y="-7" width="42" height="14" rx="7" fill="#F6F7F9" style="fill:#F6F7F9;fill:color(display-p3 0.9647 0.9686 0.9765);fill-opacity:1;"/>
  <rect x="178" y="-7" width="58" height="14" rx="7" fill="#F6F7F9" style="fill:#F6F7F9;fill:color(display-p3 0.9647 0.9686 0.9765);fill-opacity:1;"/>
  <rect x="243" y="-7" width="46" height="14" rx="7" fill="#F6F7F9" style="fill:#F6F7F9;fill:color(display-p3 0.9647 0.9686 0.9765);fill-opacity:1;"/>
  <rect x="37" y="-9" width="19" height="19" rx="9.5" fill="#E9EAED" style="fill:#E9EAED;fill:color(display-p3 0.9137 0.9176 0.9294);fill-opacity:1;"/>
  <rect x="63" y="17" width="59" height="14" rx="7" fill="#F6F7F9" style="fill:#F6F7F9;fill:color(display-p3 0.9647 0.9686 0.9765);fill-opacity:1;"/>
  <rect x="129" y="17" width="42" height="14" rx="7" fill="#F6F7F9" style="fill:#F6F7F9;fill:color(display-p3 0.9647 0.9686 0.9765);fill-opacity:1;"/>
  <rect x="178" y="17" width="58" height="14" rx="7" fill="#F6F7F9" style="fill:#F6F7F9;fill:color(display-p3 0.9647 0.9686 0.9765);fill-opacity:1;"/>
  <rect x="243" y="17" width="46" height="14" rx="7" fill="#F6F7F9" style="fill:#F6F7F9;fill:color(display-p3 0.9647 0.9686 0.9765);fill-opacity:1;"/>
  <rect x="37" y="15" width="19" height="19" rx="9.5" fill="#E9EAED" style="fill:#E9EAED;fill:color(display-p3 0.9137 0.9176 0.9294);fill-opacity:1;"/>
  <path d="M46.5 18L45.336 18.6858L42.164 20.5642L41 21.25V27.75L42.164 28.4358L45.3651 30.3142L46.5291 31L47.6931 30.3142L50.836 28.4358L52 27.75V21.25L50.836 20.5642L47.664 18.6858L46.5 18ZM43.328 26.3784V22.6216L46.5 20.7431L49.672 22.6216V26.3784L46.5 28.2569L43.328 26.3784Z" fill="black" style="fill:black;fill:black;fill-opacity:1;"/>
  <g clip-path="url(#clip1_624_1653)">
  <path d="M46.5 15C51.7472 15 56 19.2537 56 24.5C56 29.7472 51.7472 34 46.5 34C41.2537 34 37 29.7468 37 24.5C37 19.2537 41.2537 15 46.5 15Z" fill="#E9EAED" style="fill:#E9EAED;fill:color(display-p3 0.9137 0.9176 0.9294);fill-opacity:1;"/>
  </g>
  <rect x="63" y="161.002" width="59" height="14" rx="7" fill="#F6F7F9" style="fill:#F6F7F9;fill:color(display-p3 0.9647 0.9686 0.9765);fill-opacity:1;"/>
  <rect x="129" y="161.002" width="42" height="14" rx="7" fill="#F6F7F9" style="fill:#F6F7F9;fill:color(display-p3 0.9647 0.9686 0.9765);fill-opacity:1;"/>
  <rect x="178" y="161.002" width="58" height="14" rx="7" fill="#F6F7F9" style="fill:#F6F7F9;fill:color(display-p3 0.9647 0.9686 0.9765);fill-opacity:1;"/>
  <rect x="243" y="161.002" width="46" height="14" rx="7" fill="#F6F7F9" style="fill:#F6F7F9;fill:color(display-p3 0.9647 0.9686 0.9765);fill-opacity:1;"/>
  <rect x="37" y="159.002" width="19" height="19" rx="9.5" fill="#E9EAED" style="fill:#E9EAED;fill:color(display-p3 0.9137 0.9176 0.9294);fill-opacity:1;"/>
  <rect x="63" y="187.002" width="59" height="14" rx="7" fill="#F6F7F9" style="fill:#F6F7F9;fill:color(display-p3 0.9647 0.9686 0.9765);fill-opacity:1;"/>
  <rect x="129" y="187.002" width="42" height="14" rx="7" fill="#F6F7F9" style="fill:#F6F7F9;fill:color(display-p3 0.9647 0.9686 0.9765);fill-opacity:1;"/>
  <rect x="178" y="187.002" width="58" height="14" rx="7" fill="#F6F7F9" style="fill:#F6F7F9;fill:color(display-p3 0.9647 0.9686 0.9765);fill-opacity:1;"/>
  <rect x="243" y="187.002" width="46" height="14" rx="7" fill="#F6F7F9" style="fill:#F6F7F9;fill:color(display-p3 0.9647 0.9686 0.9765);fill-opacity:1;"/>
  <rect x="37" y="185.002" width="19" height="19" rx="9.5" fill="#E9EAED" style="fill:#E9EAED;fill:color(display-p3 0.9137 0.9176 0.9294);fill-opacity:1;"/>
  </g>
  <defs>
  <filter id="filter0_d_624_1653" x="0" y="-45" width="326" height="282" filterUnits="userSpaceOnUse" color-interpolation-filters="sRGB">
  <feFlood flood-opacity="0" result="BackgroundImageFix"/>
  <feColorMatrix in="SourceAlpha" type="matrix" values="0 0 0 0 0 0 0 0 0 0 0 0 0 0 0 0 0 0 127 0" result="hardAlpha"/>
  <feOffset/>
  <feGaussianBlur stdDeviation="12.5"/>
  <feComposite in2="hardAlpha" operator="out"/>
  <feColorMatrix type="matrix" values="0 0 0 0 0.896 0 0 0 0 0.87 0 0 0 0 0.844 0 0 0 0.5 0"/>
  <feBlend mode="normal" in2="BackgroundImageFix" result="effect1_dropShadow_624_1653"/>
  <feBlend mode="normal" in="SourceGraphic" in2="effect1_dropShadow_624_1653" result="shape"/>
  </filter>
  <clipPath id="clip0_624_1653">
  <rect width="19" height="19" fill="white" style="fill:white;fill:white;fill-opacity:1;" transform="translate(37 111)"/>
  </clipPath>
  <clipPath id="clip1_624_1653">
  <rect width="19" height="19" fill="white" style="fill:white;fill:white;fill-opacity:1;" transform="translate(37 15)"/>
  </clipPath>
  </defs>
  </svg>
  