<svg width="43" height="20" viewBox="0 0 43 20" fill="none" xmlns="http://www.w3.org/2000/svg">
<path d="M0.0224609 5C0.0224609 2.23858 2.26104 0 5.02246 0H37.9906C40.752 0 42.9906 2.23858 42.9906 5V15C42.9906 17.7614 40.752 20 37.9906 20H5.02246C2.26104 20 0.0224609 17.7614 0.0224609 15V5Z" fill="#E1ECDD" style="fill:#E1ECDD;fill:color(display-p3 0.8824 0.9255 0.8667);fill-opacity:1;"/>
<path d="M5.98127 14V5.27273H9.17729C9.79661 5.27273 10.3094 5.375 10.7156 5.57955C11.1219 5.78125 11.4259 6.0554 11.6276 6.40199C11.8293 6.74574 11.9301 7.13352 11.9301 7.56534C11.9301 7.92898 11.8634 8.2358 11.7298 8.4858C11.5963 8.73295 11.4173 8.93182 11.1929 9.08239C10.9713 9.23011 10.727 9.33807 10.46 9.40625V9.49148C10.7497 9.50568 11.0324 9.59943 11.308 9.77273C11.5864 9.94318 11.8165 10.1861 11.9983 10.5014C12.1801 10.8168 12.271 11.2003 12.271 11.652C12.271 12.098 12.1659 12.4986 11.9557 12.8537C11.7483 13.206 11.4273 13.4858 10.9926 13.6932C10.558 13.8977 10.0026 14 9.32644 14H5.98127ZM7.29803 12.8707H9.1986C9.82928 12.8707 10.281 12.7486 10.5537 12.5043C10.8264 12.2599 10.9628 11.9545 10.9628 11.5881C10.9628 11.3125 10.8932 11.0597 10.754 10.8295C10.6148 10.5994 10.4159 10.4162 10.1574 10.2798C9.90172 10.1435 9.59775 10.0753 9.24547 10.0753H7.29803V12.8707ZM7.29803 9.0483H9.06223C9.35769 9.0483 9.62331 8.99148 9.85911 8.87784C10.0977 8.7642 10.2867 8.60511 10.4259 8.40057C10.5679 8.19318 10.6389 7.94886 10.6389 7.66761C10.6389 7.30682 10.5125 7.00426 10.2597 6.75994C10.0068 6.51562 9.61905 6.39347 9.09632 6.39347H7.29803V9.0483ZM19.455 5.27273H20.7761V11.0128C20.7761 11.6236 20.6326 12.1648 20.3457 12.6364C20.0587 13.1051 19.6553 13.4744 19.1354 13.7443C18.6156 14.0114 18.0062 14.1449 17.3073 14.1449C16.6113 14.1449 16.0033 14.0114 15.4835 13.7443C14.9636 13.4744 14.5602 13.1051 14.2732 12.6364C13.9863 12.1648 13.8428 11.6236 13.8428 11.0128V5.27273H15.1596V10.9062C15.1596 11.3011 15.2462 11.652 15.4195 11.9588C15.5957 12.2656 15.8443 12.5071 16.1653 12.6832C16.4863 12.8565 16.867 12.9432 17.3073 12.9432C17.7505 12.9432 18.1326 12.8565 18.4536 12.6832C18.7775 12.5071 19.0246 12.2656 19.1951 11.9588C19.3684 11.652 19.455 11.3011 19.455 10.9062V5.27273ZM24.0172 5.27273V14H22.7005V5.27273H24.0172ZM25.9449 14V5.27273H27.2616V12.8665H31.2162V14H25.9449ZM31.1612 6.40625V5.27273H37.9154V6.40625H35.1924V14H33.8799V6.40625H31.1612Z" fill="#27362B" style="fill:#27362B;fill:color(display-p3 0.1529 0.2118 0.1686);fill-opacity:1;"/>
</svg>
