<svg width="326" height="192" viewBox="0 0 326 192" fill="none" xmlns="http://www.w3.org/2000/svg">
  <g filter="url(#filter0_d_624_2493)">
  <rect x="25" y="20" width="276" height="152" rx="10" fill="white" style="fill:white;fill:white;fill-opacity:1;"/>
  <rect x="37" y="119" width="252" height="41" rx="8" fill="#F6F7F9" style="fill:#F6F7F9;fill:color(display-p3 0.9647 0.9686 0.9765);fill-opacity:1;"/>
  <path d="M139.386 144V135.273H142.497C143.176 135.273 143.738 135.396 144.184 135.643C144.63 135.891 144.964 136.229 145.186 136.658C145.407 137.084 145.518 137.564 145.518 138.098C145.518 138.635 145.406 139.118 145.181 139.547C144.96 139.973 144.624 140.311 144.176 140.561C143.73 140.808 143.169 140.932 142.492 140.932H140.353V139.815H142.373C142.802 139.815 143.15 139.741 143.417 139.594C143.684 139.443 143.88 139.239 144.005 138.98C144.13 138.722 144.193 138.428 144.193 138.098C144.193 137.768 144.13 137.476 144.005 137.22C143.88 136.964 143.683 136.764 143.413 136.619C143.146 136.474 142.794 136.402 142.356 136.402H140.703V144H139.386ZM148.816 144.145C148.401 144.145 148.026 144.068 147.691 143.915C147.355 143.759 147.09 143.533 146.894 143.237C146.701 142.942 146.604 142.58 146.604 142.151C146.604 141.781 146.675 141.477 146.817 141.239C146.959 141 147.151 140.811 147.392 140.672C147.634 140.533 147.904 140.428 148.202 140.357C148.5 140.286 148.804 140.232 149.114 140.195C149.506 140.149 149.824 140.112 150.068 140.084C150.313 140.053 150.49 140.003 150.601 139.935C150.712 139.866 150.767 139.756 150.767 139.602V139.572C150.767 139.2 150.662 138.912 150.452 138.707C150.245 138.503 149.935 138.401 149.523 138.401C149.094 138.401 148.756 138.496 148.509 138.686C148.264 138.874 148.095 139.082 148.002 139.312L146.804 139.04C146.946 138.642 147.154 138.321 147.426 138.077C147.702 137.83 148.019 137.651 148.377 137.54C148.735 137.426 149.111 137.369 149.506 137.369C149.767 137.369 150.044 137.401 150.337 137.463C150.632 137.523 150.908 137.634 151.164 137.795C151.422 137.957 151.634 138.189 151.799 138.49C151.963 138.788 152.046 139.176 152.046 139.653V144H150.801V143.105H150.75C150.668 143.27 150.544 143.432 150.38 143.591C150.215 143.75 150.003 143.882 149.745 143.987C149.486 144.092 149.176 144.145 148.816 144.145ZM149.093 143.122C149.445 143.122 149.746 143.053 149.996 142.913C150.249 142.774 150.441 142.592 150.571 142.368C150.705 142.141 150.772 141.898 150.772 141.639V140.795C150.726 140.841 150.638 140.884 150.507 140.923C150.38 140.96 150.233 140.993 150.068 141.021C149.904 141.047 149.743 141.071 149.587 141.094C149.431 141.114 149.3 141.131 149.195 141.145C148.948 141.176 148.722 141.229 148.517 141.303C148.316 141.376 148.154 141.483 148.031 141.622C147.912 141.759 147.853 141.94 147.853 142.168C147.853 142.483 147.969 142.722 148.202 142.884C148.435 143.043 148.732 143.122 149.093 143.122ZM154.324 146.455C154.133 146.455 153.96 146.439 153.804 146.408C153.648 146.379 153.531 146.348 153.454 146.314L153.761 145.27C153.994 145.332 154.202 145.359 154.383 145.351C154.565 145.342 154.726 145.274 154.865 145.146C155.007 145.018 155.132 144.81 155.24 144.52L155.398 144.085L153.003 137.455H154.366L156.024 142.534H156.092L157.75 137.455H159.118L156.42 144.874C156.295 145.214 156.136 145.503 155.943 145.739C155.75 145.977 155.52 146.156 155.253 146.276C154.986 146.395 154.676 146.455 154.324 146.455ZM170.657 135.273V144H169.447L165.011 137.599H164.93V144H163.613V135.273H164.832L169.272 141.682H169.353V135.273H170.657ZM175.243 144.132C174.629 144.132 174.094 143.991 173.636 143.71C173.179 143.429 172.824 143.036 172.571 142.53C172.318 142.024 172.192 141.433 172.192 140.757C172.192 140.078 172.318 139.484 172.571 138.976C172.824 138.467 173.179 138.072 173.636 137.791C174.094 137.51 174.629 137.369 175.243 137.369C175.857 137.369 176.392 137.51 176.85 137.791C177.307 138.072 177.662 138.467 177.915 138.976C178.168 139.484 178.294 140.078 178.294 140.757C178.294 141.433 178.168 142.024 177.915 142.53C177.662 143.036 177.307 143.429 176.85 143.71C176.392 143.991 175.857 144.132 175.243 144.132ZM175.247 143.062C175.645 143.062 175.975 142.957 176.236 142.747C176.497 142.537 176.69 142.257 176.815 141.908C176.943 141.558 177.007 141.173 177.007 140.753C177.007 140.335 176.943 139.952 176.815 139.602C176.69 139.25 176.497 138.967 176.236 138.754C175.975 138.541 175.645 138.435 175.247 138.435C174.847 138.435 174.514 138.541 174.25 138.754C173.989 138.967 173.794 139.25 173.666 139.602C173.541 139.952 173.479 140.335 173.479 140.753C173.479 141.173 173.541 141.558 173.666 141.908C173.794 142.257 173.989 142.537 174.25 142.747C174.514 142.957 174.847 143.062 175.247 143.062ZM180.946 144L179.02 137.455H180.337L181.619 142.261H181.683L182.97 137.455H184.287L185.566 142.24H185.629L186.904 137.455H188.22L186.298 144H184.999L183.669 139.274H183.571L182.242 144H180.946Z" fill="#373737" style="fill:#373737;fill:color(display-p3 0.2157 0.2157 0.2157);fill-opacity:1;"/>
  <g clip-path="url(#clip0_624_2493)">
  <path d="M56 100C66.5293 100 75.0001 91.5293 75.0001 81C75.0001 70.4708 66.5293 62 56 62C45.4708 62 37 70.4708 37 81C37 91.5293 45.4708 100 56 100Z" fill="#E9EAED" style="fill:#E9EAED;fill:color(display-p3 0.9137 0.9176 0.9294);fill-opacity:1;"/>
  </g>
  <rect x="87" y="72" width="112" height="18" rx="9" fill="#F6F7F9" style="fill:#F6F7F9;fill:color(display-p3 0.9647 0.9686 0.9765);fill-opacity:1;"/>
  <rect x="211" y="72" width="78" height="18" rx="9" fill="#F6F7F9" style="fill:#F6F7F9;fill:color(display-p3 0.9647 0.9686 0.9765);fill-opacity:1;"/>
  <rect x="199" y="32" width="12" height="12" rx="6" fill="#F6F7F9" style="fill:#F6F7F9;fill:color(display-p3 0.9647 0.9686 0.9765);fill-opacity:1;"/>
  <rect x="216" y="32" width="73" height="12" rx="6" fill="#F6F7F9" style="fill:#F6F7F9;fill:color(display-p3 0.9647 0.9686 0.9765);fill-opacity:1;"/>
  <rect x="37" y="32" width="73" height="12" rx="6" fill="#F6F7F9" style="fill:#F6F7F9;fill:color(display-p3 0.9647 0.9686 0.9765);fill-opacity:1;"/>
  </g>
  <defs>
  <filter id="filter0_d_624_2493" x="0" y="-5" width="326" height="202" filterUnits="userSpaceOnUse" color-interpolation-filters="sRGB">
  <feFlood flood-opacity="0" result="BackgroundImageFix"/>
  <feColorMatrix in="SourceAlpha" type="matrix" values="0 0 0 0 0 0 0 0 0 0 0 0 0 0 0 0 0 0 127 0" result="hardAlpha"/>
  <feOffset/>
  <feGaussianBlur stdDeviation="12.5"/>
  <feComposite in2="hardAlpha" operator="out"/>
  <feColorMatrix type="matrix" values="0 0 0 0 0.896 0 0 0 0 0.87 0 0 0 0 0.844 0 0 0 0.5 0"/>
  <feBlend mode="normal" in2="BackgroundImageFix" result="effect1_dropShadow_624_2493"/>
  <feBlend mode="normal" in="SourceGraphic" in2="effect1_dropShadow_624_2493" result="shape"/>
  </filter>
  <clipPath id="clip0_624_2493">
  <rect width="38.0001" height="38.0001" fill="white" style="fill:white;fill:white;fill-opacity:1;" transform="translate(37 62)"/>
  </clipPath>
  </defs>
  </svg>
  