<svg width="326" height="189" viewBox="0 0 326 189" fill="none" xmlns="http://www.w3.org/2000/svg">
  <g filter="url(#filter0_d_624_1345)">
  <rect x="25" y="-24" width="276" height="188" rx="10" fill="white" style="fill:white;fill:white;fill-opacity:1;"/>
  <mask id="mask0_624_1345" style="mask-type:alpha" maskUnits="userSpaceOnUse" x="37" y="13" width="76" height="76">
  <rect x="37" y="13" width="76" height="76" rx="38" fill="white" style="fill:white;fill:white;fill-opacity:1;"/>
  </mask>
  <g mask="url(#mask0_624_1345)">
  <rect x="37" y="13" width="76" height="76" rx="38" fill="#F6F7F9" style="fill:#F6F7F9;fill:color(display-p3 0.9647 0.9686 0.9765);fill-opacity:1;"/>
  </g>
  <rect x="128" y="18" width="161" height="12" rx="6" fill="#F6F7F9" style="fill:#F6F7F9;fill:color(display-p3 0.9647 0.9686 0.9765);fill-opacity:1;"/>
  <rect x="128" y="36" width="161" height="12" rx="6" fill="#F6F7F9" style="fill:#F6F7F9;fill:color(display-p3 0.9647 0.9686 0.9765);fill-opacity:1;"/>
  <rect x="128" y="54" width="161" height="12" rx="6" fill="#F6F7F9" style="fill:#F6F7F9;fill:color(display-p3 0.9647 0.9686 0.9765);fill-opacity:1;"/>
  <rect x="128" y="72" width="120" height="12" rx="6" fill="#F6F7F9" style="fill:#F6F7F9;fill:color(display-p3 0.9647 0.9686 0.9765);fill-opacity:1;"/>
  <rect x="37" y="111" width="252" height="41" rx="8" fill="#F6F7F9" style="fill:#F6F7F9;fill:color(display-p3 0.9647 0.9686 0.9765);fill-opacity:1;"/>
  <path d="M141.878 136V127.273H145.074C145.694 127.273 146.207 127.375 146.613 127.58C147.019 127.781 147.323 128.055 147.525 128.402C147.726 128.746 147.827 129.134 147.827 129.565C147.827 129.929 147.761 130.236 147.627 130.486C147.493 130.733 147.315 130.932 147.09 131.082C146.868 131.23 146.624 131.338 146.357 131.406V131.491C146.647 131.506 146.93 131.599 147.205 131.773C147.484 131.943 147.714 132.186 147.895 132.501C148.077 132.817 148.168 133.2 148.168 133.652C148.168 134.098 148.063 134.499 147.853 134.854C147.645 135.206 147.324 135.486 146.89 135.693C146.455 135.898 145.9 136 145.224 136H141.878ZM143.195 134.871H145.096C145.726 134.871 146.178 134.749 146.451 134.504C146.724 134.26 146.86 133.955 146.86 133.588C146.86 133.312 146.79 133.06 146.651 132.83C146.512 132.599 146.313 132.416 146.055 132.28C145.799 132.143 145.495 132.075 145.143 132.075H143.195V134.871ZM143.195 131.048H144.959C145.255 131.048 145.52 130.991 145.756 130.878C145.995 130.764 146.184 130.605 146.323 130.401C146.465 130.193 146.536 129.949 146.536 129.668C146.536 129.307 146.41 129.004 146.157 128.76C145.904 128.516 145.516 128.393 144.993 128.393H143.195V131.048ZM153.617 133.286V129.455H154.896V136H153.643V134.866H153.575C153.424 135.216 153.183 135.507 152.85 135.74C152.521 135.97 152.11 136.085 151.619 136.085C151.198 136.085 150.826 135.993 150.502 135.808C150.181 135.621 149.928 135.344 149.744 134.977C149.562 134.611 149.471 134.158 149.471 133.618V129.455H150.745V133.464C150.745 133.911 150.869 134.266 151.116 134.53C151.363 134.794 151.684 134.926 152.079 134.926C152.318 134.926 152.555 134.866 152.791 134.747C153.029 134.628 153.227 134.447 153.383 134.206C153.542 133.964 153.62 133.658 153.617 133.286ZM157.256 138.455C157.066 138.455 156.893 138.439 156.736 138.408C156.58 138.379 156.464 138.348 156.387 138.314L156.694 137.27C156.927 137.332 157.134 137.359 157.316 137.351C157.498 137.342 157.658 137.274 157.797 137.146C157.939 137.018 158.064 136.81 158.172 136.52L158.33 136.085L155.935 129.455H157.299L158.957 134.534H159.025L160.682 129.455H162.05L159.353 136.874C159.228 137.214 159.069 137.503 158.876 137.739C158.682 137.977 158.452 138.156 158.185 138.276C157.918 138.395 157.609 138.455 157.256 138.455ZM166.212 136V127.273H167.529V131.44H167.635L171.296 127.273H172.954L169.434 131.202L172.966 136H171.381L168.56 132.101L167.529 133.286V136H166.212ZM176.262 136.132C175.617 136.132 175.062 135.994 174.596 135.719C174.133 135.44 173.775 135.05 173.522 134.547C173.272 134.041 173.147 133.449 173.147 132.77C173.147 132.099 173.272 131.509 173.522 130.997C173.775 130.486 174.127 130.087 174.579 129.8C175.034 129.513 175.565 129.369 176.173 129.369C176.542 129.369 176.9 129.43 177.247 129.553C177.593 129.675 177.904 129.866 178.18 130.128C178.456 130.389 178.673 130.729 178.832 131.146C178.991 131.561 179.071 132.065 179.071 132.659V133.111H173.867V132.156H177.822C177.822 131.821 177.754 131.524 177.617 131.266C177.481 131.004 177.289 130.798 177.042 130.648C176.798 130.497 176.511 130.422 176.181 130.422C175.823 130.422 175.511 130.51 175.244 130.686C174.98 130.859 174.775 131.087 174.63 131.368C174.488 131.646 174.417 131.949 174.417 132.276V133.021C174.417 133.459 174.494 133.831 174.647 134.138C174.804 134.445 175.021 134.679 175.299 134.841C175.578 135 175.903 135.08 176.275 135.08C176.517 135.08 176.737 135.045 176.936 134.977C177.135 134.906 177.306 134.801 177.451 134.662C177.596 134.523 177.707 134.351 177.784 134.146L178.99 134.364C178.893 134.719 178.72 135.03 178.47 135.297C178.223 135.561 177.912 135.767 177.537 135.915C177.164 136.06 176.74 136.132 176.262 136.132ZM180.945 138.455C180.755 138.455 180.582 138.439 180.426 138.408C180.269 138.379 180.153 138.348 180.076 138.314L180.383 137.27C180.616 137.332 180.823 137.359 181.005 137.351C181.187 137.342 181.347 137.274 181.487 137.146C181.629 137.018 181.754 136.81 181.862 136.52L182.019 136.085L179.624 129.455H180.988L182.646 134.534H182.714L184.372 129.455H185.739L183.042 136.874C182.917 137.214 182.758 137.503 182.565 137.739C182.372 137.977 182.141 138.156 181.874 138.276C181.607 138.395 181.298 138.455 180.945 138.455Z" fill="#373737" style="fill:#373737;fill:color(display-p3 0.2157 0.2157 0.2157);fill-opacity:1;"/>
  </g>
  <defs>
  <filter id="filter0_d_624_1345" x="0" y="-49" width="326" height="238" filterUnits="userSpaceOnUse" color-interpolation-filters="sRGB">
  <feFlood flood-opacity="0" result="BackgroundImageFix"/>
  <feColorMatrix in="SourceAlpha" type="matrix" values="0 0 0 0 0 0 0 0 0 0 0 0 0 0 0 0 0 0 127 0" result="hardAlpha"/>
  <feOffset/>
  <feGaussianBlur stdDeviation="12.5"/>
  <feComposite in2="hardAlpha" operator="out"/>
  <feColorMatrix type="matrix" values="0 0 0 0 0.896 0 0 0 0 0.87 0 0 0 0 0.844 0 0 0 0.5 0"/>
  <feBlend mode="normal" in2="BackgroundImageFix" result="effect1_dropShadow_624_1345"/>
  <feBlend mode="normal" in="SourceGraphic" in2="effect1_dropShadow_624_1345" result="shape"/>
  </filter>
  </defs>
  </svg>
  