<svg xmlns="http://www.w3.org/2000/svg" width="660" height="446" fill="none">
  <g clip-path="url(#a)">
    <g>
      <path fill="#fff" d="M135.83 85.95h444.44v235.68a24 24 0 0 1-24 24H159.83a24 24 0 0 1-24-24V85.95Z" style="fill:#fff;fill-opacity:1"/>
    </g>
    <path fill="url(#c)" d="M138.33 58.14a23.19 23.19 0 0 0-2.5 10.52v253.68a23.28 23.28 0 0 0 23.28 23.29h317.23l-18.06-31.33-27.27-15.5-23.69-44.9 11.22-50.5 35.54-27.9s-42.4-34.22-75.39-36.7c-30.92-2.33-63.74 12.48-92.63 36.7-3.11-37.34-20.2-71.34-43.71-91.32-25.07-21.31-56.86-26.78-89.13-26.78-4.96 0-9.94.24-14.89.74Z"/>
    <path fill="#E9EAED" d="M237.41 88.89c20.6 17.5 35.03 43.05 37.82 76.67l2.3 27.57 21.19-17.77c26.06-21.86 54.63-29.85 81.76-27.8 26.94 2.03 52.37 13.94 72.38 31.84l15-5.55c-22.8-22.56-53.32-38.1-86.3-40.58-26.25-1.98-53.44 4.36-78.74 21.14-4.5 2.99-8.94 6.3-13.31 9.97a145.46 145.46 0 0 0-2.3-16.47c-5.9-29.52-20.58-53-40.52-69.94a127.83 127.83 0 0 0-28.39-18.2l-7.9 12.13a113.97 113.97 0 0 1 27.02 16.99Z" style="fill:#e9eaed;fill:color(display-p3 .9137 .9176 .9294);fill-opacity:1"/>
    <path stroke="#B6B8BD" stroke-dasharray="9.85 9.85" stroke-linecap="round" stroke-linejoin="round" stroke-width="1.25" d="M156.57 124.85h91.73v183.57h-91.73z" style="stroke:#b6b8bd;stroke:color(display-p3 .7137 .7216 .7412);stroke-opacity:1"/>
    <path fill="#B6B8BD" stroke="#B6B8BD" d="M136.33 69.37a23.5 23.5 0 0 1 23.5-23.5h396.44a23.5 23.5 0 0 1 23.5 23.5v16.45H136.33V69.37Z" style="fill:#b6b8bd;fill:color(display-p3 .7137 .7216 .7412);fill-opacity:1;stroke:#b6b8bd;stroke:color(display-p3 .7137 .7216 .7412);stroke-opacity:1"/>
    <g>
      <path fill="#fff" d="M149.6 66.74a7.16 7.16 0 1 1 14.33 0 7.16 7.16 0 0 1-14.33 0Z" style="fill:#fff;fill-opacity:1"/>
    </g>
    <g>
      <path fill="#fff" d="M169.3 66.74a7.16 7.16 0 1 1 14.33 0 7.16 7.16 0 0 1-14.33 0Z" style="fill:#fff;fill-opacity:1"/>
    </g>
    <g>
      <path fill="#fff" d="M189 66.74a7.16 7.16 0 1 1 14.33 0 7.16 7.16 0 0 1-14.33 0Z" style="fill:#fff;fill-opacity:1"/>
    </g>
    <path fill="#E9EAED" fill-rule="evenodd" d="M486.18 345.63h-19.11a149.92 149.92 0 0 1-7.21-30.21l18.58 3.17c1.67 9.63 4.4 18.67 7.74 27.04Zm94.13-220.8v21.92a474.59 474.59 0 0 0-35.45 28.24c-4.2 3.7-8.39 7.57-12.5 11.55l-14.7-10.68c5.1-5.02 10.26-9.8 15.35-14.3a503.25 503.25 0 0 1 47.3-36.72Z" clip-rule="evenodd" style="fill:#e9eaed;fill:color(display-p3 .9137 .9176 .9294);fill-opacity:1"/>
    <path fill="#E9EAED" d="m523.99 176.15 21.37 23.6s-21.76 19.71-34.06 50.99c-12.3 31.27-12.42 65.2-12.42 65.2l-30.25 5.15L442 301.67s.57-37.16 14.35-73.05c13.78-35.9 41.17-56.56 41.17-56.56l26.47 4.09Z" style="fill:#e9eaed;fill:color(display-p3 .9137 .9176 .9294);fill-opacity:1"/>
    <g>
      <rect width="84.43" height="32.04" x="432" y="207.1" fill="#fff" rx="16.02" style="fill:#fff;fill-opacity:1"/>
    </g>
    <path fill="#B6B8BD" d="M452.22 221.57a1.8 1.8 0 0 1 0 3.1l-5.02 2.9c-.88.51-1.94.15-2.13-.84a19.1 19.1 0 0 1-.3-3.6c0-1.57.13-2.75.3-3.6.19-1 1.25-1.36 2.13-.85l5.02 2.9Z" style="fill:#b6b8bd;fill:color(display-p3 .7137 .7216 .7412);fill-opacity:1"/>
    <rect width="4.48" height="11.11" x="458.9" y="217.57" fill="#B6B8BD" rx="2.24" style="fill:#b6b8bd;fill:color(display-p3 .7137 .7216 .7412);fill-opacity:1"/>
    <rect width="4.48" height="7.98" x="483.08" y="219.14" fill="#B6B8BD" rx="2.24" style="fill:#b6b8bd;fill:color(display-p3 .7137 .7216 .7412);fill-opacity:1"/>
    <rect width="4.48" height="7.98" x="499.2" y="219.14" fill="#B6B8BD" rx="2.24" style="fill:#b6b8bd;fill:color(display-p3 .7137 .7216 .7412);fill-opacity:1"/>
    <rect width="4.48" height="14.09" x="491.14" y="216.08" fill="#B6B8BD" rx="2.24" style="fill:#b6b8bd;fill:color(display-p3 .7137 .7216 .7412);fill-opacity:1"/>
    <rect width="4.48" height="16.08" x="466.96" y="215.09" fill="#B6B8BD" rx="2.24" style="fill:#b6b8bd;fill:color(display-p3 .7137 .7216 .7412);fill-opacity:1"/>
    <rect width="4.48" height="16.08" x="475.02" y="215.09" fill="#B6B8BD" rx="2.24" style="fill:#b6b8bd;fill:color(display-p3 .7137 .7216 .7412);fill-opacity:1"/>
    <g>
      <rect width="62.32" height="32.04" x="477.26" y="250.51" fill="#fff" rx="16.02" style="fill:#fff;fill-opacity:1"/>
    </g>
    <circle cx="496.58" cy="266.54" r="3.94" fill="#B6B8BD" style="fill:#b6b8bd;fill:color(display-p3 .7137 .7216 .7412);fill-opacity:1"/>
    <circle cx="508.42" cy="266.54" r="3.94" fill="#B6B8BD" style="fill:#b6b8bd;fill:color(display-p3 .7137 .7216 .7412);fill-opacity:1"/>
    <circle cx="520.25" cy="266.54" r="3.94" fill="#B6B8BD" style="fill:#b6b8bd;fill:color(display-p3 .7137 .7216 .7412);fill-opacity:1"/>
    <path stroke="#fff" stroke-linecap="round" stroke-width="10" d="M499.48 193a52.92 52.92 0 0 1 38.22 40.77" opacity=".6" style="stroke:#fff;stroke-opacity:1"/>
    <path stroke="url(#i)" stroke-linecap="round" stroke-linejoin="round" stroke-width="1.5" d="m580.78 199.91 28.11-11.61"/>
    <g opacity=".25">
      <path fill="url(#k)" fill-opacity=".4" d="M485.32 316.42a72.53 72.53 0 1 0 0-145.06 72.53 72.53 0 0 0 0 145.06Z"/>
    </g>
  </g>
  <g fill="#fff">
    <path d="M589.23 74.03h-17.91v17.9h17.9v-17.9Zm-17.91 17.91H553.4v17.91h-17.9v17.91h-17.91v-17.91h-17.92v17.91h17.92v17.91h17.9v-17.91h17.92v-17.91h17.9v17.91h17.92v-17.91h-17.91V91.94Zm-236.53 191v17.91h17.9v-17.9h-17.9Zm-71.65 35.82v17.91h17.91v17.91h17.91v17.91h17.92v-17.9h-17.92v-17.92h17.92v-17.9h-17.92v17.9h-17.9v-17.9h-17.92Zm326.09-173.09h-17.91v17.91h17.9v-17.91Zm-17.91 153.8h17.9v17.9h-17.9v-17.9Zm-344 37.2v17.91h17.91v-17.9h-17.9Z" style="fill:#fff;fill-opacity:1"/>
  </g>
  <g>
    <rect width="107.46" height="130.75" x="194.57" y="161.56" fill="#fff" rx="8.96" style="fill:#fff;fill-opacity:1"/>
  </g>
  <rect width="85.97" height="10.75" x="205.31" y="172.3" fill="#E9EAED" rx="5.37" style="fill:#e9eaed;fill:color(display-p3 .9137 .9176 .9294);fill-opacity:1"/>
  <rect width="85.97" height="10.75" x="205.31" y="188.87" fill="#E9EAED" rx="5.37" style="fill:#e9eaed;fill:color(display-p3 .9137 .9176 .9294);fill-opacity:1"/>
  <rect width="85.97" height="10.75" x="205.31" y="205.43" fill="#E9EAED" rx="5.37" style="fill:#e9eaed;fill:color(display-p3 .9137 .9176 .9294);fill-opacity:1"/>
  <rect width="85.97" height="10.75" x="205.31" y="221.99" fill="#E9EAED" rx="5.37" style="fill:#e9eaed;fill:color(display-p3 .9137 .9176 .9294);fill-opacity:1"/>
  <circle cx="216.06" cy="270.96" r="10.75" fill="#E9EAED" style="fill:#e9eaed;fill:color(display-p3 .9137 .9176 .9294);fill-opacity:1"/>
  <circle cx="280.54" cy="270.96" r="10.75" fill="#B6B8BD" style="fill:#b6b8bd;fill:color(display-p3 .7137 .7216 .7412);fill-opacity:1"/>
  <path fill="#B6B8BD" fill-rule="evenodd" d="M227.16 263.82c.52.53.52 1.38 0 1.9l-10.32 10.32c-.73.73-1.92.73-2.66 0l-4.3-4.3a1.34 1.34 0 1 1 1.9-1.9l3.73 3.73 9.75-9.75a1.34 1.34 0 0 1 1.9 0Z" clip-rule="evenodd" style="fill:#b6b8bd;fill:color(display-p3 .7137 .7216 .7412);fill-opacity:1"/>
  <g>
    <rect width="107.46" height="130.75" x="102.84" y="108.73" fill="#fff" rx="8.96" style="fill:#fff;fill-opacity:1"/>
  </g>
  <path fill="#B6B8BD" fill-rule="evenodd" d="M190.79 215.69a5.05 5.05 0 0 1 3.67-1.24c1.32.1 2.54.72 3.45 1.62.9.9 1.53 2.1 1.63 3.4a5 5 0 0 1-1.48 3.9l-.33.32c-5.23 5.18-12.17 5.2-12.24 5.2-.04 0-7 0-12.25-5.2l-.32-.32a5 5 0 0 1 .14-7.3 5.54 5.54 0 0 1 3.45-1.62 5 5 0 0 1 3.67 1.24c.13-1.5.77-2.65 1.71-3.45 1-.85 2.3-1.27 3.6-1.27 1.28 0 2.59.42 3.59 1.27.94.8 1.58 1.96 1.7 3.45Z" clip-rule="evenodd" style="fill:#b6b8bd;fill:color(display-p3 .7137 .7216 .7412);fill-opacity:1"/>
  <rect width="85.97" height="10.75" x="113.59" y="119.48" fill="#E9EAED" rx="5.37" style="fill:#e9eaed;fill:color(display-p3 .9137 .9176 .9294);fill-opacity:1"/>
  <rect width="85.97" height="10.75" x="113.59" y="136.04" fill="#E9EAED" rx="5.37" style="fill:#e9eaed;fill:color(display-p3 .9137 .9176 .9294);fill-opacity:1"/>
  <rect width="85.97" height="10.75" x="113.59" y="152.6" fill="#E9EAED" rx="5.37" style="fill:#e9eaed;fill:color(display-p3 .9137 .9176 .9294);fill-opacity:1"/>
  <rect width="85.97" height="10.75" x="113.59" y="169.16" fill="#E9EAED" rx="5.37" style="fill:#e9eaed;fill:color(display-p3 .9137 .9176 .9294);fill-opacity:1"/>
  <circle cx="124.33" cy="218.14" r="10.75" fill="#E9EAED" style="fill:#e9eaed;fill:color(display-p3 .9137 .9176 .9294);fill-opacity:1"/>
  <path fill="#B6B8BD" fill-rule="evenodd" d="M135.43 211c.53.52.53 1.37 0 1.9l-10.31 10.31c-.74.74-1.93.74-2.66 0l-4.3-4.3a1.34 1.34 0 1 1 1.9-1.9l3.73 3.73 9.74-9.75a1.34 1.34 0 0 1 1.9 0Z" clip-rule="evenodd" style="fill:#b6b8bd;fill:color(display-p3 .7137 .7216 .7412);fill-opacity:1"/>
  <g>
    <path fill="#fff" d="M415.81 302.6s2.8 4.17 5.07 6.43c2.26 2.26 6.42 5.07 6.42 5.07l-52.2 52.2a8.13 8.13 0 0 1-11.49-11.5l52.2-52.2Z" style="fill:#fff;fill-opacity:1"/>
    <path fill="#E9EAED" fill-opacity=".15" d="m411.76 306.64 3.76-3.8 11.78 11.3-3.9 3.95s-2.12-.67-6.59-5.14-5.05-6.31-5.05-6.31Z" style="fill:#e9eaed;fill:color(display-p3 .9137 .9176 .9294);fill-opacity:.15"/>
    <g>
      <path fill="#fff" d="M417.98 287.14s5.94 9.09 10.82 13.97c4.88 4.87 13.97 10.82 13.97 10.82l-4.31 4.3c-2.7 2.7-6.8 3.36-9.9 1.13a71.19 71.19 0 0 1-8.62-7.4 71.1 71.1 0 0 1-7.39-8.62c-2.23-3.1-1.58-7.2 1.12-9.9l4.3-4.3Z" style="fill:#fff;fill-opacity:1"/>
    </g>
    <g>
      <path fill="#fff" fill-rule="evenodd" d="M436.69 293.22a69.44 69.44 0 1 0 98.2-98.2 69.44 69.44 0 0 0-98.2 98.2Zm-8.87 8.87a81.98 81.98 0 1 0 115.94-115.94 81.98 81.98 0 0 0-115.94 115.94Z" clip-rule="evenodd" style="fill:#fff;fill-opacity:1"/>
    </g>
  </g>
  <path stroke="url(#r)" stroke-linecap="round" stroke-linejoin="round" stroke-width="1.5" d="m25.52 280.58 109.8 39.14"/>
  <path stroke="url(#s)" stroke-linecap="round" stroke-linejoin="round" stroke-width="1.5" d="m25.52 280.58 84.77-40.67"/>
  <path stroke="url(#t)" stroke-linecap="round" stroke-linejoin="round" stroke-width="1.5" d="m59.7 208.66 42.64-14.96"/>
  <path stroke="#E9EAED" stroke-linecap="round" stroke-linejoin="round" stroke-width="1.5" d="m25.52 280.58 34.1-71.41" style="stroke:#e9eaed;stroke:color(display-p3 .9137 .9176 .9294);stroke-opacity:1"/>
  <g>
    <rect width="17.91" height="17.91" x="16.73" y="288.99" fill="#fff" rx="8.96" style="fill:#fff;fill-opacity:1" transform="rotate(-90 16.73 289)"/>
  </g>
  <path stroke="url(#v)" stroke-linecap="round" stroke-linejoin="round" stroke-width="1.5" d="m59.63 209.16 75.69 93.74"/>
  <g>
    <rect width="12.71" height="12.71" x="602.3" y="194.49" fill="#fff" rx="6.35" style="fill:#fff;fill-opacity:1" transform="rotate(-90 602.3 194.5)"/>
  </g>
  <g>
    <rect width="12.71" height="12.71" x="53.28" y="215.15" fill="#fff" rx="6.35" style="fill:#fff;fill-opacity:1" transform="rotate(-90 53.28 215.15)"/>
  </g>
  <g>
    <rect width="165.59" height="81.65" x="305.91" y="73.91" fill="#fff" rx="8.96" style="fill:#fff;fill-opacity:1"/>
  </g>
  <rect width="94.65" height="10.75" x="365.02" y="84.65" fill="#E9EAED" rx="5.37" style="fill:#e9eaed;fill:color(display-p3 .9137 .9176 .9294);fill-opacity:1"/>
  <rect width="94.65" height="10.75" x="365.02" y="101.22" fill="#E9EAED" rx="5.37" style="fill:#e9eaed;fill:color(display-p3 .9137 .9176 .9294);fill-opacity:1"/>
  <rect width="94.65" height="10.75" x="365.02" y="117.78" fill="#E9EAED" rx="5.37" style="fill:#e9eaed;fill:color(display-p3 .9137 .9176 .9294);fill-opacity:1"/>
  <g>
    <path fill="#E9EAED" d="M317.9 104.35a19.7 19.7 0 1 1 39.41 0 19.7 19.7 0 0 1-39.4 0Z" style="fill:#e9eaed;fill:color(display-p3 .9137 .9176 .9294);fill-opacity:1"/>
  </g>
  <rect width="19.7" height="19.7" x="327.76" y="90.4" fill="#B6B8BD" rx="9.85" style="fill:#b6b8bd;fill:color(display-p3 .7137 .7216 .7412);fill-opacity:1"/>
  <path fill="#B6B8BD" fill-rule="evenodd" d="M350.2 119.5a19.62 19.62 0 0 1-12.6 4.56c-4.78 0-9.17-1.71-12.59-4.55a15.98 15.98 0 0 1 25.19 0Z" clip-rule="evenodd" style="fill:#b6b8bd;fill:color(display-p3 .7137 .7216 .7412);fill-opacity:1"/>
  <defs>
    <filter id="b" width="534.44" height="349.67" x="90.83" y="45.95" color-interpolation-filters="sRGB" filterUnits="userSpaceOnUse">
      <feFlood flood-opacity="0" result="BackgroundImageFix"/>
      <feColorMatrix in="SourceAlpha" result="hardAlpha" values="0 0 0 0 0 0 0 0 0 0 0 0 0 0 0 0 0 0 127 0"/>
      <feOffset dy="5"/>
      <feGaussianBlur stdDeviation="22.5"/>
      <feComposite in2="hardAlpha" operator="out"/>
      <feColorMatrix values="0 0 0 0 0 0 0 0 0 0 0 0 0 0 0 0 0 0 0.05 0"/>
      <feBlend in2="BackgroundImageFix" result="effect1_dropShadow_654_883"/>
      <feBlend in="SourceGraphic" in2="effect1_dropShadow_654_883" result="shape"/>
    </filter>
    <filter id="d" width="22.33" height="22.33" x="145.6" y="57.58" color-interpolation-filters="sRGB" filterUnits="userSpaceOnUse">
      <feFlood flood-opacity="0" result="BackgroundImageFix"/>
      <feColorMatrix in="SourceAlpha" result="hardAlpha" values="0 0 0 0 0 0 0 0 0 0 0 0 0 0 0 0 0 0 127 0"/>
      <feOffset dy="2"/>
      <feGaussianBlur stdDeviation="2"/>
      <feComposite in2="hardAlpha" operator="out"/>
      <feColorMatrix values="0 0 0 0 0 0 0 0 0 0 0 0 0 0 0 0 0 0 0.05 0"/>
      <feBlend in2="BackgroundImageFix" result="effect1_dropShadow_654_883"/>
      <feBlend in="SourceGraphic" in2="effect1_dropShadow_654_883" result="shape"/>
    </filter>
    <filter id="e" width="22.33" height="22.33" x="165.3" y="57.58" color-interpolation-filters="sRGB" filterUnits="userSpaceOnUse">
      <feFlood flood-opacity="0" result="BackgroundImageFix"/>
      <feColorMatrix in="SourceAlpha" result="hardAlpha" values="0 0 0 0 0 0 0 0 0 0 0 0 0 0 0 0 0 0 127 0"/>
      <feOffset dy="2"/>
      <feGaussianBlur stdDeviation="2"/>
      <feComposite in2="hardAlpha" operator="out"/>
      <feColorMatrix values="0 0 0 0 0 0 0 0 0 0 0 0 0 0 0 0 0 0 0.05 0"/>
      <feBlend in2="BackgroundImageFix" result="effect1_dropShadow_654_883"/>
      <feBlend in="SourceGraphic" in2="effect1_dropShadow_654_883" result="shape"/>
    </filter>
    <filter id="f" width="22.33" height="22.33" x="185" y="57.58" color-interpolation-filters="sRGB" filterUnits="userSpaceOnUse">
      <feFlood flood-opacity="0" result="BackgroundImageFix"/>
      <feColorMatrix in="SourceAlpha" result="hardAlpha" values="0 0 0 0 0 0 0 0 0 0 0 0 0 0 0 0 0 0 127 0"/>
      <feOffset dy="2"/>
      <feGaussianBlur stdDeviation="2"/>
      <feComposite in2="hardAlpha" operator="out"/>
      <feColorMatrix values="0 0 0 0 0 0 0 0 0 0 0 0 0 0 0 0 0 0 0.05 0"/>
      <feBlend in2="BackgroundImageFix" result="effect1_dropShadow_654_883"/>
      <feBlend in="SourceGraphic" in2="effect1_dropShadow_654_883" result="shape"/>
    </filter>
    <filter id="g" width="116.43" height="64.04" x="416" y="195.1" color-interpolation-filters="sRGB" filterUnits="userSpaceOnUse">
      <feFlood flood-opacity="0" result="BackgroundImageFix"/>
      <feColorMatrix in="SourceAlpha" result="hardAlpha" values="0 0 0 0 0 0 0 0 0 0 0 0 0 0 0 0 0 0 127 0"/>
      <feOffset dy="4"/>
      <feGaussianBlur stdDeviation="8"/>
      <feComposite in2="hardAlpha" operator="out"/>
      <feColorMatrix values="0 0 0 0 0 0 0 0 0 0 0 0 0 0 0 0 0 0 0.07 0"/>
      <feBlend in2="BackgroundImageFix" result="effect1_dropShadow_654_883"/>
      <feBlend in="SourceGraphic" in2="effect1_dropShadow_654_883" result="shape"/>
    </filter>
    <filter id="h" width="94.32" height="64.04" x="461.26" y="238.51" color-interpolation-filters="sRGB" filterUnits="userSpaceOnUse">
      <feFlood flood-opacity="0" result="BackgroundImageFix"/>
      <feColorMatrix in="SourceAlpha" result="hardAlpha" values="0 0 0 0 0 0 0 0 0 0 0 0 0 0 0 0 0 0 127 0"/>
      <feOffset dy="4"/>
      <feGaussianBlur stdDeviation="8"/>
      <feComposite in2="hardAlpha" operator="out"/>
      <feColorMatrix values="0 0 0 0 0 0 0 0 0 0 0 0 0 0 0 0 0 0 0.07 0"/>
      <feBlend in2="BackgroundImageFix" result="effect1_dropShadow_654_883"/>
      <feBlend in="SourceGraphic" in2="effect1_dropShadow_654_883" result="shape"/>
    </filter>
    <filter id="j" width="159.66" height="159.66" x="405.49" y="164.06" color-interpolation-filters="sRGB" filterUnits="userSpaceOnUse">
      <feFlood flood-opacity="0" result="BackgroundImageFix"/>
      <feGaussianBlur in="BackgroundImageFix" stdDeviation="1"/>
      <feComposite in2="SourceAlpha" operator="in" result="effect1_backgroundBlur_654_883"/>
      <feBlend in="SourceGraphic" in2="effect1_backgroundBlur_654_883" result="shape"/>
      <feGaussianBlur result="effect2_foregroundBlur_654_883" stdDeviation="3.65"/>
    </filter>
    <filter id="l" width="501.9" height="438.46" x="157.32" y="7.03" color-interpolation-filters="sRGB" filterUnits="userSpaceOnUse">
      <feFlood flood-opacity="0" result="BackgroundImageFix"/>
      <feColorMatrix in="SourceAlpha" result="hardAlpha" values="0 0 0 0 0 0 0 0 0 0 0 0 0 0 0 0 0 0 127 0"/>
      <feOffset dy="3"/>
      <feGaussianBlur stdDeviation="35"/>
      <feComposite in2="hardAlpha" operator="out"/>
      <feColorMatrix values="0 0 0 0 0 0 0 0 0 0 0 0 0 0 0 0 0 0 0.17 0"/>
      <feBlend in2="BackgroundImageFix" result="effect1_dropShadow_654_883"/>
      <feBlend in="SourceGraphic" in2="effect1_dropShadow_654_883" result="shape"/>
    </filter>
    <filter id="m" width="139.46" height="162.75" x="178.57" y="149.56" color-interpolation-filters="sRGB" filterUnits="userSpaceOnUse">
      <feFlood flood-opacity="0" result="BackgroundImageFix"/>
      <feColorMatrix in="SourceAlpha" result="hardAlpha" values="0 0 0 0 0 0 0 0 0 0 0 0 0 0 0 0 0 0 127 0"/>
      <feOffset dy="4"/>
      <feGaussianBlur stdDeviation="8"/>
      <feComposite in2="hardAlpha" operator="out"/>
      <feColorMatrix values="0 0 0 0 0 0 0 0 0 0 0 0 0 0 0 0 0 0 0.07 0"/>
      <feBlend in2="BackgroundImageFix" result="effect1_dropShadow_654_883"/>
      <feBlend in="SourceGraphic" in2="effect1_dropShadow_654_883" result="shape"/>
    </filter>
    <filter id="n" width="139.46" height="162.75" x="86.84" y="96.73" color-interpolation-filters="sRGB" filterUnits="userSpaceOnUse">
      <feFlood flood-opacity="0" result="BackgroundImageFix"/>
      <feColorMatrix in="SourceAlpha" result="hardAlpha" values="0 0 0 0 0 0 0 0 0 0 0 0 0 0 0 0 0 0 127 0"/>
      <feOffset dy="4"/>
      <feGaussianBlur stdDeviation="8"/>
      <feComposite in2="hardAlpha" operator="out"/>
      <feColorMatrix values="0 0 0 0 0 0 0 0 0 0 0 0 0 0 0 0 0 0 0.07 0"/>
      <feBlend in2="BackgroundImageFix" result="effect1_dropShadow_654_883"/>
      <feBlend in="SourceGraphic" in2="effect1_dropShadow_654_883" result="shape"/>
    </filter>
    <filter id="o" width="286.53" height="286.53" x="326.23" y="130.14" color-interpolation-filters="sRGB" filterUnits="userSpaceOnUse">
      <feFlood flood-opacity="0" result="BackgroundImageFix"/>
      <feColorMatrix in="SourceAlpha" result="hardAlpha" values="0 0 0 0 0 0 0 0 0 0 0 0 0 0 0 0 0 0 127 0"/>
      <feOffset dx="5" dy="8"/>
      <feGaussianBlur stdDeviation="20"/>
      <feComposite in2="hardAlpha" operator="out"/>
      <feColorMatrix values="0 0 0 0 0 0 0 0 0 0 0 0 0 0 0 0 0 0 0.05 0"/>
      <feBlend in2="BackgroundImageFix" result="effect1_dropShadow_654_883"/>
      <feBlend in="SourceGraphic" in2="effect1_dropShadow_654_883" result="shape"/>
    </filter>
    <filter id="p" width="53.06" height="53.06" x="400.46" y="276.39" color-interpolation-filters="sRGB" filterUnits="userSpaceOnUse">
      <feFlood flood-opacity="0" result="BackgroundImageFix"/>
      <feColorMatrix in="SourceAlpha" result="hardAlpha" values="0 0 0 0 0 0 0 0 0 0 0 0 0 0 0 0 0 0 127 0"/>
      <feOffset/>
      <feGaussianBlur stdDeviation="5.37"/>
      <feComposite in2="hardAlpha" operator="out"/>
      <feColorMatrix values="0 0 0 0 0.921569 0 0 0 0 0.92549 0 0 0 0 0.933333 0 0 0 0.5 0"/>
      <feBlend in2="BackgroundImageFix" result="effect1_dropShadow_654_883"/>
      <feBlend in="SourceGraphic" in2="effect1_dropShadow_654_883" result="shape"/>
    </filter>
    <filter id="q" width="192.62" height="192.61" x="389.48" y="147.81" color-interpolation-filters="sRGB" filterUnits="userSpaceOnUse">
      <feFlood flood-opacity="0" result="BackgroundImageFix"/>
      <feColorMatrix in="SourceAlpha" result="hardAlpha" values="0 0 0 0 0 0 0 0 0 0 0 0 0 0 0 0 0 0 127 0"/>
      <feOffset/>
      <feGaussianBlur stdDeviation="7.16"/>
      <feComposite in2="hardAlpha" operator="out"/>
      <feColorMatrix values="0 0 0 0 0.921569 0 0 0 0 0.92549 0 0 0 0 0.933333 0 0 0 0.3 0"/>
      <feBlend in2="BackgroundImageFix" result="effect1_dropShadow_654_883"/>
      <feBlend in="SourceGraphic" in2="effect1_dropShadow_654_883" result="shape"/>
    </filter>
    <filter id="u" width="49.91" height="49.91" x=".73" y="259.08" color-interpolation-filters="sRGB" filterUnits="userSpaceOnUse">
      <feFlood flood-opacity="0" result="BackgroundImageFix"/>
      <feColorMatrix in="SourceAlpha" result="hardAlpha" values="0 0 0 0 0 0 0 0 0 0 0 0 0 0 0 0 0 0 127 0"/>
      <feOffset dy="4"/>
      <feGaussianBlur stdDeviation="8"/>
      <feComposite in2="hardAlpha" operator="out"/>
      <feColorMatrix values="0 0 0 0 0 0 0 0 0 0 0 0 0 0 0 0 0 0 0.07 0"/>
      <feBlend in2="BackgroundImageFix" result="effect1_dropShadow_654_883"/>
      <feBlend in="SourceGraphic" in2="effect1_dropShadow_654_883" result="shape"/>
    </filter>
    <filter id="w" width="44.71" height="44.71" x="586.3" y="169.78" color-interpolation-filters="sRGB" filterUnits="userSpaceOnUse">
      <feFlood flood-opacity="0" result="BackgroundImageFix"/>
      <feColorMatrix in="SourceAlpha" result="hardAlpha" values="0 0 0 0 0 0 0 0 0 0 0 0 0 0 0 0 0 0 127 0"/>
      <feOffset dy="4"/>
      <feGaussianBlur stdDeviation="8"/>
      <feComposite in2="hardAlpha" operator="out"/>
      <feColorMatrix values="0 0 0 0 0 0 0 0 0 0 0 0 0 0 0 0 0 0 0.07 0"/>
      <feBlend in2="BackgroundImageFix" result="effect1_dropShadow_654_883"/>
      <feBlend in="SourceGraphic" in2="effect1_dropShadow_654_883" result="shape"/>
    </filter>
    <filter id="x" width="44.71" height="44.71" x="37.28" y="190.44" color-interpolation-filters="sRGB" filterUnits="userSpaceOnUse">
      <feFlood flood-opacity="0" result="BackgroundImageFix"/>
      <feColorMatrix in="SourceAlpha" result="hardAlpha" values="0 0 0 0 0 0 0 0 0 0 0 0 0 0 0 0 0 0 127 0"/>
      <feOffset dy="4"/>
      <feGaussianBlur stdDeviation="8"/>
      <feComposite in2="hardAlpha" operator="out"/>
      <feColorMatrix values="0 0 0 0 0 0 0 0 0 0 0 0 0 0 0 0 0 0 0.07 0"/>
      <feBlend in2="BackgroundImageFix" result="effect1_dropShadow_654_883"/>
      <feBlend in="SourceGraphic" in2="effect1_dropShadow_654_883" result="shape"/>
    </filter>
    <filter id="y" width="197.59" height="113.65" x="289.91" y="61.91" color-interpolation-filters="sRGB" filterUnits="userSpaceOnUse">
      <feFlood flood-opacity="0" result="BackgroundImageFix"/>
      <feColorMatrix in="SourceAlpha" result="hardAlpha" values="0 0 0 0 0 0 0 0 0 0 0 0 0 0 0 0 0 0 127 0"/>
      <feOffset dy="4"/>
      <feGaussianBlur stdDeviation="8"/>
      <feComposite in2="hardAlpha" operator="out"/>
      <feColorMatrix values="0 0 0 0 0 0 0 0 0 0 0 0 0 0 0 0 0 0 0.07 0"/>
      <feBlend in2="BackgroundImageFix" result="effect1_dropShadow_654_883"/>
      <feBlend in="SourceGraphic" in2="effect1_dropShadow_654_883" result="shape"/>
    </filter>
    <filter id="z" width="71.4" height="71.4" x="301.91" y="72.65" color-interpolation-filters="sRGB" filterUnits="userSpaceOnUse">
      <feFlood flood-opacity="0" result="BackgroundImageFix"/>
      <feColorMatrix in="SourceAlpha" result="hardAlpha" values="0 0 0 0 0 0 0 0 0 0 0 0 0 0 0 0 0 0 127 0"/>
      <feOffset dy="4"/>
      <feGaussianBlur stdDeviation="8"/>
      <feComposite in2="hardAlpha" operator="out"/>
      <feColorMatrix values="0 0 0 0 0 0 0 0 0 0 0 0 0 0 0 0 0 0 0.07 0"/>
      <feBlend in2="BackgroundImageFix" result="effect1_dropShadow_654_883"/>
      <feBlend in="SourceGraphic" in2="effect1_dropShadow_654_883" result="shape"/>
    </filter>
    <linearGradient id="c" x1="408.76" x2="135.83" y1="125.59" y2="345.63" gradientUnits="userSpaceOnUse">
      <stop offset=".11" stop-color="#F6F7F9" style="stop-color:#f6f7f9;stop-color:color(display-p3 .9647 .9686 .9765);stop-opacity:1"/>
      <stop offset=".73" stop-color="#fff" style="stop-color:white;stop-opacity:1"/>
    </linearGradient>
    <linearGradient id="i" x1="582.23" x2="581.83" y1="188.96" y2="198.77" gradientUnits="userSpaceOnUse">
      <stop stop-color="#E9EAED" style="stop-color:#e9eaed;stop-color:color(display-p3 .9137 .9176 .9294);stop-opacity:1"/>
      <stop offset="1" stop-color="#E9EAED" stop-opacity="0" style="stop-color:none;stop-opacity:0"/>
    </linearGradient>
    <linearGradient id="r" x1="31.16" x2="29.99" y1="282.81" y2="315.89" gradientUnits="userSpaceOnUse">
      <stop stop-color="#E9EAED" style="stop-color:#e9eaed;stop-color:color(display-p3 .9137 .9176 .9294);stop-opacity:1"/>
      <stop offset="1" stop-color="#E9EAED" stop-opacity="0" style="stop-color:none;stop-opacity:0"/>
    </linearGradient>
    <linearGradient id="s" x1="25.52" x2="51.88" y1="280.58" y2="304.44" gradientUnits="userSpaceOnUse">
      <stop stop-color="#E9EAED" style="stop-color:#e9eaed;stop-color:color(display-p3 .9137 .9176 .9294);stop-opacity:1"/>
      <stop offset="1" stop-color="#E9EAED" stop-opacity="0" style="stop-color:none;stop-opacity:0"/>
    </linearGradient>
    <linearGradient id="t" x1="64.12" x2="102.34" y1="207.09" y2="192.78" gradientUnits="userSpaceOnUse">
      <stop stop-color="#E9EAED" style="stop-color:#e9eaed;stop-color:color(display-p3 .9137 .9176 .9294);stop-opacity:1"/>
      <stop offset="1" stop-color="#E9EAED" stop-opacity="0" style="stop-color:none;stop-opacity:0"/>
    </linearGradient>
    <linearGradient id="v" x1="63.52" x2="53.88" y1="214.51" y2="292.64" gradientUnits="userSpaceOnUse">
      <stop stop-color="#E9EAED" style="stop-color:#e9eaed;stop-color:color(display-p3 .9137 .9176 .9294);stop-opacity:1"/>
      <stop offset="1" stop-color="#E9EAED" stop-opacity="0" style="stop-color:none;stop-opacity:0"/>
    </linearGradient>
    <radialGradient id="k" cx="0" cy="0" r="1" gradientTransform="matrix(0 150 -150 0 485.32 243.9)" gradientUnits="userSpaceOnUse">
      <stop offset=".28" stop-color="#fff" stop-opacity="0" style="stop-color:none;stop-opacity:0"/>
      <stop offset="1" stop-color="#fff" style="stop-color:white;stop-opacity:1"/>
    </radialGradient>
    <clipPath id="a">
      <path fill="#fff" d="M0 0h548.06v390.45H0z" style="fill:#fff;fill-opacity:1" transform="translate(83.16 .75)"/>
    </clipPath>
  </defs>
</svg>
