<svg width="33" height="21" viewBox="0 0 33 21" fill="none" xmlns="http://www.w3.org/2000/svg">
<path fill-rule="evenodd" clip-rule="evenodd" d="M22.7178 5.52874C24.0703 4.39482 25.5795 3.96339 27.0267 4.07245C28.5706 4.1888 29.9993 4.91591 31.0662 5.97205C32.1332 7.02827 32.8662 8.441 32.9835 9.96568C33.1019 11.5042 32.5892 13.1157 31.2375 14.5299C31.1139 14.6601 30.9875 14.7887 30.8585 14.9157C24.7276 20.984 16.5834 21 16.5001 21H16.4996C16.458 21 8.28808 20.9997 2.14118 14.9148L2.13984 14.9135C2.01295 14.7871 1.88797 14.6599 1.76489 14.5319L1.7639 14.5309C0.411534 13.1178 -0.101641 11.5068 0.0163859 9.9682C0.133327 8.4438 0.865842 7.03089 1.9325 5.97431C2.99909 4.91779 4.42761 4.1901 5.97171 4.07326C7.41891 3.96375 8.92832 4.39465 10.2817 5.52804C10.4272 3.77994 11.1853 2.41942 12.2859 1.48408C13.4596 0.486495 14.9892 0 16.4997 0C18.0102 0 19.5398 0.486495 20.7135 1.48408C21.8142 2.41954 22.5724 3.78031 22.7178 5.52874ZM16.7804 20.3847L16.7801 20.377L16.7806 20.377L16.7804 20.3847ZM16.219 20.3847L16.2188 20.377L16.2193 20.377L16.219 20.3847ZM21.1058 11.9584C20.9381 11.9584 20.88 12.1982 20.987 12.3252C21.1765 12.5502 21.2904 12.8396 21.2904 13.1554C21.2904 13.872 20.7036 14.453 19.9797 14.453C19.2558 14.453 18.669 13.872 18.669 13.1554C18.669 13.1171 18.6184 13.0981 18.5956 13.1291C18.3889 13.4102 18.2493 13.7257 18.192 14.057C18.1597 14.2436 18.0065 14.3981 17.814 14.3981H17.7077C17.4564 14.3981 17.2492 14.1965 17.2863 13.9522C17.5404 12.2781 19.2073 11.0639 21.1058 11.0639C23.0043 11.0639 24.6711 12.2781 24.9253 13.9522C24.9624 14.1965 24.7551 14.3981 24.5039 14.3981C24.2527 14.3981 24.0537 14.1955 23.9991 13.9544C23.7506 12.8571 22.5986 11.9584 21.1058 11.9584ZM9.46641 13.1554C9.46641 13.1049 9.4002 13.0778 9.36905 13.118C9.14804 13.4034 8.99747 13.7267 8.93375 14.0674C8.89611 14.2687 8.73073 14.4359 8.52259 14.4359H8.44458C8.19335 14.4359 7.98609 14.2343 8.02315 13.99C8.2772 12.315 9.94419 11.1017 11.8427 11.1017C13.7412 11.1017 15.4082 12.315 15.6622 13.99C15.6993 14.2343 15.492 14.4359 15.2408 14.4359C14.9896 14.4359 14.7906 14.2333 14.7361 13.9922C14.4877 12.8942 13.3358 11.9962 11.8427 11.9962C11.707 11.9962 11.6573 12.1848 11.7482 12.2839C11.9593 12.5142 12.0879 12.82 12.0879 13.1554C12.0879 13.872 11.501 14.453 10.7771 14.453C10.0532 14.453 9.46641 13.872 9.46641 13.1554ZM17.9578 16.2845C18.1354 16.1097 18.4098 16.0248 18.6303 16.1432C18.8507 16.2616 18.9344 16.5366 18.7755 16.7279C18.258 17.3511 17.4202 17.7459 16.4962 17.7459C15.5727 17.7459 14.733 17.3552 14.2148 16.7274C14.0565 16.5356 14.1412 16.2609 14.3621 16.1432C14.583 16.0255 14.857 16.1116 15.0343 16.2865C15.3758 16.6236 15.8941 16.8514 16.4962 16.8514C17.0967 16.8514 17.6155 16.6213 17.9578 16.2845Z" fill="#848281" style="fill:#848281;fill:color(display-p3 0.5176 0.5098 0.5059);fill-opacity:1;"/>
</svg>
