<svg width="302" height="192" viewBox="0 0 302 192" fill="none" xmlns="http://www.w3.org/2000/svg">
  <g filter="url(#filter0_d_624_1379)">
  <rect x="25" y="18" width="252" height="41" rx="10" fill="white" style="fill:white;fill:white;fill-opacity:1;"/>
  <path d="M62.9588 43V34.2727H64.2756V41.8665H68.2301V43H62.9588ZM72.2942 43.1321C71.6493 43.1321 71.0939 42.9943 70.628 42.7188C70.1649 42.4403 69.807 42.0497 69.5541 41.5469C69.3041 41.0412 69.1791 40.4489 69.1791 39.7699C69.1791 39.0994 69.3041 38.5085 69.5541 37.9972C69.807 37.4858 70.1592 37.0866 70.611 36.7997C71.0655 36.5128 71.5967 36.3693 72.2047 36.3693C72.574 36.3693 72.932 36.4304 73.2786 36.5526C73.6252 36.6747 73.9362 36.8665 74.2118 37.1278C74.4874 37.3892 74.7047 37.7287 74.8638 38.1463C75.0229 38.5611 75.1024 39.0653 75.1024 39.6591V40.1108H69.8993V39.1562H73.8538C73.8538 38.821 73.7857 38.5241 73.6493 38.2656C73.5129 38.0043 73.3212 37.7983 73.074 37.6477C72.8297 37.4972 72.5428 37.4219 72.2132 37.4219C71.8553 37.4219 71.5428 37.5099 71.2757 37.6861C71.0115 37.8594 70.807 38.0866 70.6621 38.3679C70.52 38.6463 70.449 38.9489 70.449 39.2756V40.0213C70.449 40.4588 70.5257 40.831 70.6791 41.1378C70.8354 41.4446 71.0527 41.679 71.3311 41.8409C71.6095 42 71.9348 42.0795 72.307 42.0795C72.5485 42.0795 72.7686 42.0455 72.9675 41.9773C73.1663 41.9062 73.3382 41.8011 73.4831 41.6619C73.628 41.5227 73.7388 41.3509 73.8155 41.1463L75.0215 41.3636C74.9249 41.7187 74.7516 42.0298 74.5016 42.2969C74.2544 42.5611 73.9433 42.767 73.5683 42.9148C73.1962 43.0597 72.7715 43.1321 72.2942 43.1321ZM77.6335 39.1136V43H76.3593V36.4545H77.5823V37.5199H77.6633C77.8139 37.1733 78.0497 36.8949 78.3707 36.6847C78.6946 36.4744 79.1022 36.3693 79.5937 36.3693C80.0397 36.3693 80.4304 36.4631 80.7656 36.6506C81.1008 36.8352 81.3608 37.1108 81.5454 37.4773C81.7301 37.8437 81.8224 38.2969 81.8224 38.8366V43H80.5483V38.9901C80.5483 38.5156 80.4247 38.1449 80.1775 37.8778C79.9304 37.608 79.5909 37.473 79.159 37.473C78.8636 37.473 78.6008 37.5369 78.3707 37.6648C78.1434 37.7926 77.963 37.9801 77.8295 38.2273C77.6988 38.4716 77.6335 38.767 77.6335 39.1136ZM84.6485 39.1136V43H83.3744V36.4545H84.5974V37.5199H84.6784C84.8289 37.1733 85.0647 36.8949 85.3858 36.6847C85.7096 36.4744 86.1173 36.3693 86.6088 36.3693C87.0548 36.3693 87.4454 36.4631 87.7807 36.6506C88.1159 36.8352 88.3758 37.1108 88.5605 37.4773C88.7451 37.8437 88.8375 38.2969 88.8375 38.8366V43H87.5633V38.9901C87.5633 38.5156 87.4397 38.1449 87.1926 37.8778C86.9454 37.608 86.6059 37.473 86.1741 37.473C85.8787 37.473 85.6159 37.5369 85.3858 37.6648C85.1585 37.7926 84.9781 37.9801 84.8446 38.2273C84.7139 38.4716 84.6485 38.767 84.6485 39.1136ZM90.9605 45.4545C90.7702 45.4545 90.5969 45.4389 90.4406 45.4077C90.2844 45.3793 90.1679 45.348 90.0912 45.3139L90.398 44.2699C90.6309 44.3324 90.8383 44.3594 91.0202 44.3509C91.202 44.3423 91.3625 44.2741 91.5017 44.1463C91.6437 44.0185 91.7687 43.8097 91.8767 43.5199L92.0344 43.0852L89.6395 36.4545H91.0031L92.6608 41.5341H92.729L94.3866 36.4545H95.7545L93.0571 43.8736C92.9321 44.2145 92.773 44.5028 92.5798 44.7386C92.3866 44.9773 92.1565 45.1563 91.8895 45.2756C91.6224 45.3949 91.3128 45.4545 90.9605 45.4545Z" fill="#373737" style="fill:#373737;fill:color(display-p3 0.2157 0.2157 0.2157);fill-opacity:1;"/>
  <g opacity="0.4">
  <circle cx="44" cy="38" r="5" stroke="#373737" style="stroke:#373737;stroke:color(display-p3 0.2157 0.2157 0.2157);stroke-opacity:1;" stroke-width="1.5"/>
  <path d="M49.4697 44.5303C49.7626 44.8232 50.2374 44.8232 50.5303 44.5303C50.8232 44.2374 50.8232 43.7626 50.5303 43.4697L49.4697 44.5303ZM47.4697 42.5303L49.4697 44.5303L50.5303 43.4697L48.5303 41.4697L47.4697 42.5303Z" fill="#373737" style="fill:#373737;fill:color(display-p3 0.2157 0.2157 0.2157);fill-opacity:1;"/>
  </g>
  <g clip-path="url(#clip0_624_1379)">
  <mask id="path-6-inside-1_624_1379" fill="white">
  <path d="M25 65H277V101H25V65Z"/>
  </mask>
  <path d="M25 65H277V101H25V65Z" fill="white" style="fill:white;fill:white;fill-opacity:1;"/>
  <path d="M277 100H25V102H277V100Z" fill="#FAFAFA" style="fill:#FAFAFA;fill:color(display-p3 0.9804 0.9804 0.9804);fill-opacity:1;" mask="url(#path-6-inside-1_624_1379)"/>
  <rect x="37.3911" y="77" width="107.217" height="12" rx="6" fill="#F6F7F9" style="fill:#F6F7F9;fill:color(display-p3 0.9647 0.9686 0.9765);fill-opacity:1;"/>
  <rect x="225" y="77" width="40" height="12" rx="6" fill="#FDEBEB" style="fill:#FDEBEB;fill:color(display-p3 0.9922 0.9216 0.9216);fill-opacity:1;"/>
  <mask id="path-10-inside-2_624_1379" fill="white">
  <path d="M25 101H277V137H25V101Z"/>
  </mask>
  <path d="M25 101H277V137H25V101Z" fill="white" style="fill:white;fill:white;fill-opacity:1;"/>
  <path d="M277 136H25V138H277V136Z" fill="#FAFAFA" style="fill:#FAFAFA;fill:color(display-p3 0.9804 0.9804 0.9804);fill-opacity:1;" mask="url(#path-10-inside-2_624_1379)"/>
  <rect x="37.3911" y="113.174" width="78.2609" height="12" rx="6" fill="#F6F7F9" style="fill:#F6F7F9;fill:color(display-p3 0.9647 0.9686 0.9765);fill-opacity:1;"/>
  <rect x="225" y="113" width="40" height="12" rx="6" fill="#EDFDEB" style="fill:#EDFDEB;fill:color(display-p3 0.9294 0.9922 0.9216);fill-opacity:1;"/>
  <rect width="252" height="36" transform="translate(25 137)" fill="white" style="fill:white;fill:white;fill-opacity:1;"/>
  <rect x="37" y="149" width="88" height="12" rx="6" fill="#F6F7F9" style="fill:#F6F7F9;fill:color(display-p3 0.9647 0.9686 0.9765);fill-opacity:1;"/>
  <rect x="225" y="149" width="40" height="12" rx="6" fill="#FEFFD3" style="fill:#FEFFD3;fill:color(display-p3 0.9945 1.0000 0.8292);fill-opacity:1;"/>
  </g>
  </g>
  <defs>
  <filter id="filter0_d_624_1379" x="0" y="-7" width="302" height="205" filterUnits="userSpaceOnUse" color-interpolation-filters="sRGB">
  <feFlood flood-opacity="0" result="BackgroundImageFix"/>
  <feColorMatrix in="SourceAlpha" type="matrix" values="0 0 0 0 0 0 0 0 0 0 0 0 0 0 0 0 0 0 127 0" result="hardAlpha"/>
  <feOffset/>
  <feGaussianBlur stdDeviation="12.5"/>
  <feComposite in2="hardAlpha" operator="out"/>
  <feColorMatrix type="matrix" values="0 0 0 0 0.896 0 0 0 0 0.87 0 0 0 0 0.844 0 0 0 0.5 0"/>
  <feBlend mode="normal" in2="BackgroundImageFix" result="effect1_dropShadow_624_1379"/>
  <feBlend mode="normal" in="SourceGraphic" in2="effect1_dropShadow_624_1379" result="shape"/>
  </filter>
  <clipPath id="clip0_624_1379">
  <rect x="25" y="65" width="252" height="108" rx="8" fill="white" style="fill:white;fill:white;fill-opacity:1;"/>
  </clipPath>
  </defs>
  </svg>
  