<svg width="27" height="18" viewBox="0 0 27 18" fill="none" xmlns="http://www.w3.org/2000/svg">
<path fill-rule="evenodd" clip-rule="evenodd" d="M18.5873 4.52352C19.6939 3.59576 20.9287 3.24277 22.1128 3.33201C23.3759 3.4272 24.5449 4.0221 25.4178 4.88622C26.2908 5.7504 26.8905 6.90627 26.9865 8.15374C27.0834 9.41256 26.6639 10.731 25.558 11.8881C25.4568 11.9947 25.3534 12.0998 25.2479 12.2037C20.2316 17.1687 13.5682 17.1818 13.5001 17.1818H13.4997C13.4657 17.1818 6.78116 17.1815 1.75188 12.203L1.75078 12.2019C1.64696 12.0985 1.5447 11.9945 1.444 11.8897L1.44319 11.8889C0.33671 10.7327 -0.0831604 9.41461 0.0134066 8.1558C0.109086 6.90856 0.708416 5.75255 1.58114 4.88807C2.4538 4.02364 3.62259 3.42826 4.88595 3.33267C6.07002 3.24307 7.30499 3.59563 8.41227 4.52294C8.53133 3.09268 9.15164 1.97952 10.0521 1.21425C11.0124 0.398041 12.2639 0 13.4998 0C14.7356 0 15.9871 0.398041 16.9474 1.21425C17.848 1.97963 18.4683 3.09298 18.5873 4.52352ZM13.7294 16.6784L13.7292 16.6721L13.7296 16.6721L13.7294 16.6784ZM13.2701 16.6784L13.2699 16.6721L13.2704 16.6721L13.2701 16.6784ZM17.2684 9.78413C17.1312 9.78413 17.0837 9.98033 17.1712 10.0843C17.3262 10.2683 17.4194 10.5052 17.4194 10.7635C17.4194 11.3499 16.9393 11.8251 16.347 11.8251C15.7547 11.8251 15.2746 11.3499 15.2746 10.7635C15.2746 10.7322 15.2333 10.7166 15.2146 10.742C15.0454 10.972 14.9313 11.2301 14.8843 11.5012C14.8579 11.6539 14.7326 11.7803 14.5751 11.7803H14.4881C14.2825 11.7803 14.113 11.6153 14.1433 11.4155C14.3513 10.0457 15.715 9.05229 17.2684 9.05229C18.8217 9.05229 20.1855 10.0457 20.3934 11.4155C20.4238 11.6153 20.2542 11.7803 20.0487 11.7803C19.8431 11.7803 19.6803 11.6145 19.6357 11.4173C19.4323 10.5194 18.4898 9.78413 17.2684 9.78413ZM7.74524 10.7635C7.74524 10.7222 7.69107 10.7 7.66558 10.7329C7.48476 10.9665 7.36157 11.2309 7.30943 11.5097C7.27864 11.6744 7.14332 11.8112 6.97303 11.8112H6.9092C6.70365 11.8112 6.53407 11.6463 6.56439 11.4464C6.77226 10.0759 8.13615 9.0832 9.68948 9.0832C11.2428 9.0832 12.6067 10.0759 12.8146 11.4464C12.8449 11.6463 12.6753 11.8112 12.4698 11.8112C12.2642 11.8112 12.1014 11.6454 12.0568 11.4482C11.8536 10.5498 10.9111 9.81505 9.68948 9.81505C9.57845 9.81505 9.53781 9.96936 9.61214 10.0505C9.78485 10.2389 9.89009 10.4891 9.89009 10.7635C9.89009 11.3499 9.40995 11.8251 8.81766 11.8251C8.22538 11.8251 7.74524 11.3499 7.74524 10.7635ZM14.6928 13.3237C14.838 13.1807 15.0625 13.1112 15.2429 13.2081C15.4233 13.305 15.4918 13.5299 15.3618 13.6865C14.9384 14.1963 14.2529 14.5194 13.4969 14.5194C12.7413 14.5194 12.0543 14.1997 11.6303 13.686C11.5008 13.5291 11.5701 13.3043 11.7508 13.2081C11.9315 13.1118 12.1557 13.1822 12.3008 13.3254C12.5802 13.6011 13.0043 13.7875 13.4969 13.7875C13.9882 13.7875 14.4127 13.5992 14.6928 13.3237Z" fill="#373737" style="fill:#373737;fill:color(display-p3 0.2157 0.2157 0.2157);fill-opacity:1;"/>
</svg>
