<svg width="326" height="192" viewBox="0 0 326 192" fill="none" xmlns="http://www.w3.org/2000/svg">
  <g filter="url(#filter0_d_624_1421)">
  <g clip-path="url(#clip0_624_1421)">
  <rect x="25" y="-22" width="276" height="194" rx="10" fill="white" style="fill:white;fill:white;fill-opacity:1;"/>
  <rect x="37" y="119" width="252" height="41" rx="8" fill="#F6F7F9" style="fill:#F6F7F9;fill:color(display-p3 0.9647 0.9686 0.9765);fill-opacity:1;"/>
  <path d="M120.226 138.111H118.897C118.845 137.827 118.75 137.577 118.611 137.361C118.472 137.145 118.301 136.962 118.1 136.811C117.898 136.661 117.672 136.547 117.422 136.47C117.175 136.393 116.912 136.355 116.634 136.355C116.131 136.355 115.681 136.482 115.283 136.734C114.888 136.987 114.576 137.358 114.345 137.847C114.118 138.335 114.005 138.932 114.005 139.636C114.005 140.347 114.118 140.946 114.345 141.435C114.576 141.923 114.889 142.293 115.287 142.543C115.685 142.793 116.132 142.918 116.63 142.918C116.905 142.918 117.166 142.881 117.414 142.807C117.664 142.73 117.889 142.618 118.091 142.47C118.293 142.322 118.463 142.142 118.603 141.929C118.745 141.713 118.843 141.466 118.897 141.188L120.226 141.192C120.155 141.621 120.017 142.016 119.813 142.376C119.611 142.734 119.351 143.044 119.033 143.305C118.718 143.564 118.357 143.764 117.951 143.906C117.544 144.048 117.101 144.119 116.621 144.119C115.865 144.119 115.192 143.94 114.601 143.582C114.01 143.222 113.544 142.706 113.203 142.036C112.865 141.365 112.696 140.565 112.696 139.636C112.696 138.705 112.867 137.905 113.208 137.237C113.549 136.567 114.014 136.053 114.605 135.695C115.196 135.334 115.868 135.153 116.621 135.153C117.084 135.153 117.516 135.22 117.916 135.354C118.32 135.484 118.682 135.678 119.003 135.933C119.324 136.186 119.59 136.496 119.8 136.862C120.01 137.226 120.152 137.642 120.226 138.111ZM124.467 144.132C123.853 144.132 123.317 143.991 122.86 143.71C122.403 143.429 122.048 143.036 121.795 142.53C121.542 142.024 121.415 141.433 121.415 140.757C121.415 140.078 121.542 139.484 121.795 138.976C122.048 138.467 122.403 138.072 122.86 137.791C123.317 137.51 123.853 137.369 124.467 137.369C125.08 137.369 125.616 137.51 126.073 137.791C126.531 138.072 126.886 138.467 127.138 138.976C127.391 139.484 127.518 140.078 127.518 140.757C127.518 141.433 127.391 142.024 127.138 142.53C126.886 143.036 126.531 143.429 126.073 143.71C125.616 143.991 125.08 144.132 124.467 144.132ZM124.471 143.062C124.869 143.062 125.198 142.957 125.46 142.747C125.721 142.537 125.914 142.257 126.039 141.908C126.167 141.558 126.231 141.173 126.231 140.753C126.231 140.335 126.167 139.952 126.039 139.602C125.914 139.25 125.721 138.967 125.46 138.754C125.198 138.541 124.869 138.435 124.471 138.435C124.07 138.435 123.738 138.541 123.474 138.754C123.212 138.967 123.018 139.25 122.89 139.602C122.765 139.952 122.702 140.335 122.702 140.753C122.702 141.173 122.765 141.558 122.89 141.908C123.018 142.257 123.212 142.537 123.474 142.747C123.738 142.957 124.07 143.062 124.471 143.062ZM130.224 140.114V144H128.95V137.455H130.173V138.52H130.254C130.405 138.173 130.64 137.895 130.961 137.685C131.285 137.474 131.693 137.369 132.184 137.369C132.63 137.369 133.021 137.463 133.356 137.651C133.691 137.835 133.951 138.111 134.136 138.477C134.321 138.844 134.413 139.297 134.413 139.837V144H133.139V139.99C133.139 139.516 133.015 139.145 132.768 138.878C132.521 138.608 132.182 138.473 131.75 138.473C131.454 138.473 131.191 138.537 130.961 138.665C130.734 138.793 130.554 138.98 130.42 139.227C130.289 139.472 130.224 139.767 130.224 140.114ZM139.187 137.455V138.477H135.612V137.455H139.187ZM136.571 135.886H137.845V142.078C137.845 142.325 137.882 142.511 137.956 142.636C138.03 142.759 138.125 142.842 138.241 142.888C138.361 142.93 138.49 142.952 138.629 142.952C138.731 142.952 138.821 142.945 138.897 142.93C138.974 142.916 139.034 142.905 139.076 142.896L139.307 143.949C139.233 143.977 139.128 144.006 138.991 144.034C138.855 144.065 138.684 144.082 138.48 144.085C138.145 144.091 137.832 144.031 137.542 143.906C137.253 143.781 137.018 143.588 136.839 143.327C136.66 143.065 136.571 142.737 136.571 142.342V135.886ZM140.607 144V137.455H141.881V144H140.607ZM141.25 136.445C141.029 136.445 140.838 136.371 140.679 136.223C140.523 136.072 140.445 135.893 140.445 135.686C140.445 135.476 140.523 135.297 140.679 135.149C140.838 134.999 141.029 134.923 141.25 134.923C141.472 134.923 141.661 134.999 141.817 135.149C141.976 135.297 142.056 135.476 142.056 135.686C142.056 135.893 141.976 136.072 141.817 136.223C141.661 136.371 141.472 136.445 141.25 136.445ZM144.879 140.114V144H143.605V137.455H144.828V138.52H144.909C145.06 138.173 145.295 137.895 145.616 137.685C145.94 137.474 146.348 137.369 146.839 137.369C147.285 137.369 147.676 137.463 148.011 137.651C148.346 137.835 148.606 138.111 148.791 138.477C148.976 138.844 149.068 139.297 149.068 139.837V144H147.794V139.99C147.794 139.516 147.67 139.145 147.423 138.878C147.176 138.608 146.837 138.473 146.405 138.473C146.109 138.473 145.846 138.537 145.616 138.665C145.389 138.793 145.209 138.98 145.075 139.227C144.944 139.472 144.879 139.767 144.879 140.114ZM154.933 141.286V137.455H156.212V144H154.959V142.866H154.891C154.74 143.216 154.498 143.507 154.166 143.74C153.837 143.97 153.426 144.085 152.935 144.085C152.514 144.085 152.142 143.993 151.818 143.808C151.497 143.621 151.244 143.344 151.06 142.977C150.878 142.611 150.787 142.158 150.787 141.618V137.455H152.061V141.464C152.061 141.911 152.185 142.266 152.432 142.53C152.679 142.794 153 142.926 153.395 142.926C153.633 142.926 153.871 142.866 154.106 142.747C154.345 142.628 154.543 142.447 154.699 142.206C154.858 141.964 154.936 141.658 154.933 141.286ZM160.755 144.132C160.11 144.132 159.554 143.994 159.088 143.719C158.625 143.44 158.267 143.05 158.015 142.547C157.765 142.041 157.64 141.449 157.64 140.77C157.64 140.099 157.765 139.509 158.015 138.997C158.267 138.486 158.62 138.087 159.071 137.8C159.526 137.513 160.057 137.369 160.665 137.369C161.034 137.369 161.392 137.43 161.739 137.553C162.086 137.675 162.397 137.866 162.672 138.128C162.948 138.389 163.165 138.729 163.324 139.146C163.483 139.561 163.563 140.065 163.563 140.659V141.111H158.36V140.156H162.314C162.314 139.821 162.246 139.524 162.11 139.266C161.973 139.004 161.782 138.798 161.534 138.648C161.29 138.497 161.003 138.422 160.674 138.422C160.316 138.422 160.003 138.51 159.736 138.686C159.472 138.859 159.267 139.087 159.122 139.368C158.98 139.646 158.909 139.949 158.909 140.276V141.021C158.909 141.459 158.986 141.831 159.14 142.138C159.296 142.445 159.513 142.679 159.792 142.841C160.07 143 160.395 143.08 160.767 143.08C161.009 143.08 161.229 143.045 161.428 142.977C161.627 142.906 161.799 142.801 161.944 142.662C162.088 142.523 162.199 142.351 162.276 142.146L163.482 142.364C163.385 142.719 163.212 143.03 162.962 143.297C162.715 143.561 162.404 143.767 162.029 143.915C161.657 144.06 161.232 144.132 160.755 144.132ZM168.275 144V135.273H171.385C172.062 135.273 172.623 135.389 173.069 135.622C173.517 135.855 173.853 136.178 174.074 136.589C174.296 136.999 174.407 137.472 174.407 138.009C174.407 138.543 174.294 139.013 174.07 139.419C173.848 139.822 173.513 140.136 173.064 140.361C172.618 140.585 172.057 140.697 171.381 140.697H169.025V139.564H171.262C171.688 139.564 172.035 139.503 172.302 139.381C172.571 139.259 172.769 139.081 172.894 138.848C173.019 138.615 173.081 138.335 173.081 138.009C173.081 137.679 173.017 137.393 172.89 137.152C172.765 136.911 172.567 136.726 172.297 136.598C172.03 136.467 171.679 136.402 171.245 136.402H169.591V144H168.275ZM172.583 140.062L174.739 144H173.239L171.125 140.062H172.583ZM178.656 144.132C178.011 144.132 177.455 143.994 176.989 143.719C176.526 143.44 176.168 143.05 175.916 142.547C175.666 142.041 175.541 141.449 175.541 140.77C175.541 140.099 175.666 139.509 175.916 138.997C176.168 138.486 176.521 138.087 176.972 137.8C177.427 137.513 177.958 137.369 178.566 137.369C178.936 137.369 179.293 137.43 179.64 137.553C179.987 137.675 180.298 137.866 180.573 138.128C180.849 138.389 181.066 138.729 181.225 139.146C181.384 139.561 181.464 140.065 181.464 140.659V141.111H176.261V140.156H180.215C180.215 139.821 180.147 139.524 180.011 139.266C179.874 139.004 179.683 138.798 179.436 138.648C179.191 138.497 178.904 138.422 178.575 138.422C178.217 138.422 177.904 138.51 177.637 138.686C177.373 138.859 177.168 139.087 177.024 139.368C176.882 139.646 176.811 139.949 176.811 140.276V141.021C176.811 141.459 176.887 141.831 177.041 142.138C177.197 142.445 177.414 142.679 177.693 142.841C177.971 143 178.296 143.08 178.668 143.08C178.91 143.08 179.13 143.045 179.329 142.977C179.528 142.906 179.7 142.801 179.845 142.662C179.989 142.523 180.1 142.351 180.177 142.146L181.383 142.364C181.286 142.719 181.113 143.03 180.863 143.297C180.616 143.561 180.305 143.767 179.93 143.915C179.558 144.06 179.133 144.132 178.656 144.132ZM184.792 144.145C184.378 144.145 184.003 144.068 183.667 143.915C183.332 143.759 183.067 143.533 182.871 143.237C182.677 142.942 182.581 142.58 182.581 142.151C182.581 141.781 182.652 141.477 182.794 141.239C182.936 141 183.128 140.811 183.369 140.672C183.611 140.533 183.881 140.428 184.179 140.357C184.477 140.286 184.781 140.232 185.091 140.195C185.483 140.149 185.801 140.112 186.045 140.084C186.29 140.053 186.467 140.003 186.578 139.935C186.689 139.866 186.744 139.756 186.744 139.602V139.572C186.744 139.2 186.639 138.912 186.429 138.707C186.221 138.503 185.912 138.401 185.5 138.401C185.071 138.401 184.733 138.496 184.486 138.686C184.241 138.874 184.072 139.082 183.979 139.312L182.781 139.04C182.923 138.642 183.131 138.321 183.403 138.077C183.679 137.83 183.996 137.651 184.354 137.54C184.711 137.426 185.088 137.369 185.483 137.369C185.744 137.369 186.021 137.401 186.314 137.463C186.609 137.523 186.885 137.634 187.14 137.795C187.399 137.957 187.611 138.189 187.775 138.49C187.94 138.788 188.023 139.176 188.023 139.653V144H186.778V143.105H186.727C186.645 143.27 186.521 143.432 186.356 143.591C186.192 143.75 185.98 143.882 185.721 143.987C185.463 144.092 185.153 144.145 184.792 144.145ZM185.069 143.122C185.422 143.122 185.723 143.053 185.973 142.913C186.226 142.774 186.417 142.592 186.548 142.368C186.682 142.141 186.748 141.898 186.748 141.639V140.795C186.703 140.841 186.615 140.884 186.484 140.923C186.356 140.96 186.21 140.993 186.045 141.021C185.881 141.047 185.72 141.071 185.564 141.094C185.408 141.114 185.277 141.131 185.172 141.145C184.925 141.176 184.699 141.229 184.494 141.303C184.292 141.376 184.131 141.483 184.008 141.622C183.889 141.759 183.829 141.94 183.829 142.168C183.829 142.483 183.946 142.722 184.179 142.884C184.412 143.043 184.709 143.122 185.069 143.122ZM192.18 144.128C191.652 144.128 191.18 143.993 190.765 143.723C190.353 143.45 190.029 143.062 189.794 142.56C189.561 142.054 189.444 141.447 189.444 140.74C189.444 140.033 189.562 139.428 189.798 138.925C190.036 138.422 190.363 138.037 190.778 137.77C191.193 137.503 191.663 137.369 192.188 137.369C192.595 137.369 192.921 137.438 193.169 137.574C193.419 137.707 193.612 137.864 193.748 138.043C193.887 138.222 193.995 138.379 194.072 138.516H194.149V135.273H195.423V144H194.179V142.982H194.072C193.995 143.121 193.884 143.28 193.74 143.459C193.598 143.638 193.402 143.794 193.152 143.928C192.902 144.061 192.578 144.128 192.18 144.128ZM192.461 143.041C192.828 143.041 193.137 142.945 193.39 142.751C193.646 142.555 193.839 142.284 193.97 141.938C194.103 141.591 194.17 141.187 194.17 140.727C194.17 140.273 194.105 139.875 193.974 139.534C193.843 139.193 193.652 138.928 193.399 138.737C193.146 138.547 192.833 138.452 192.461 138.452C192.078 138.452 191.758 138.551 191.502 138.75C191.247 138.949 191.054 139.22 190.923 139.564C190.795 139.908 190.731 140.295 190.731 140.727C190.731 141.165 190.796 141.558 190.927 141.908C191.058 142.257 191.251 142.534 191.507 142.739C191.765 142.94 192.083 143.041 192.461 143.041ZM197.251 144V137.455H198.526V144H197.251ZM197.895 136.445C197.673 136.445 197.483 136.371 197.324 136.223C197.168 136.072 197.089 135.893 197.089 135.686C197.089 135.476 197.168 135.297 197.324 135.149C197.483 134.999 197.673 134.923 197.895 134.923C198.116 134.923 198.305 134.999 198.462 135.149C198.621 135.297 198.7 135.476 198.7 135.686C198.7 135.893 198.621 136.072 198.462 136.223C198.305 136.371 198.116 136.445 197.895 136.445ZM201.524 140.114V144H200.25V137.455H201.473V138.52H201.554C201.704 138.173 201.94 137.895 202.261 137.685C202.585 137.474 202.993 137.369 203.484 137.369C203.93 137.369 204.321 137.463 204.656 137.651C204.991 137.835 205.251 138.111 205.436 138.477C205.62 138.844 205.713 139.297 205.713 139.837V144H204.439V139.99C204.439 139.516 204.315 139.145 204.068 138.878C203.821 138.608 203.481 138.473 203.049 138.473C202.754 138.473 202.491 138.537 202.261 138.665C202.034 138.793 201.853 138.98 201.72 139.227C201.589 139.472 201.524 139.767 201.524 140.114ZM210.176 146.591C209.656 146.591 209.209 146.523 208.834 146.386C208.461 146.25 208.157 146.07 207.922 145.845C207.686 145.621 207.51 145.375 207.393 145.108L208.488 144.656C208.565 144.781 208.667 144.913 208.795 145.053C208.926 145.195 209.102 145.315 209.324 145.415C209.548 145.514 209.836 145.564 210.189 145.564C210.672 145.564 211.071 145.446 211.386 145.21C211.701 144.977 211.859 144.605 211.859 144.094V142.807H211.778C211.701 142.946 211.591 143.101 211.446 143.271C211.304 143.442 211.108 143.589 210.858 143.714C210.608 143.839 210.282 143.902 209.882 143.902C209.365 143.902 208.899 143.781 208.484 143.54C208.072 143.295 207.745 142.936 207.504 142.462C207.265 141.984 207.146 141.398 207.146 140.702C207.146 140.006 207.264 139.409 207.5 138.912C207.738 138.415 208.065 138.034 208.48 137.77C208.895 137.503 209.365 137.369 209.89 137.369C210.297 137.369 210.625 137.438 210.875 137.574C211.125 137.707 211.319 137.864 211.459 138.043C211.601 138.222 211.71 138.379 211.787 138.516H211.88V137.455H213.129V144.145C213.129 144.707 212.998 145.169 212.737 145.53C212.476 145.891 212.122 146.158 211.676 146.331C211.233 146.504 210.733 146.591 210.176 146.591ZM210.163 142.845C210.53 142.845 210.839 142.76 211.092 142.589C211.348 142.416 211.541 142.169 211.672 141.848C211.805 141.524 211.872 141.136 211.872 140.685C211.872 140.244 211.807 139.857 211.676 139.521C211.545 139.186 211.353 138.925 211.101 138.737C210.848 138.547 210.535 138.452 210.163 138.452C209.78 138.452 209.46 138.551 209.204 138.75C208.949 138.946 208.755 139.213 208.625 139.551C208.497 139.889 208.433 140.267 208.433 140.685C208.433 141.114 208.498 141.49 208.629 141.814C208.76 142.138 208.953 142.391 209.209 142.572C209.467 142.754 209.785 142.845 210.163 142.845Z" fill="#373737" style="fill:#373737;fill:color(display-p3 0.2157 0.2157 0.2157);fill-opacity:1;"/>
  <rect x="37" y="43" width="222" height="16" rx="8" fill="#F6F7F9" style="fill:#F6F7F9;fill:color(display-p3 0.9647 0.9686 0.9765);fill-opacity:1;"/>
  <rect x="37" y="67" width="252" height="16" rx="8" fill="#F6F7F9" style="fill:#F6F7F9;fill:color(display-p3 0.9647 0.9686 0.9765);fill-opacity:1;"/>
  <rect x="37" y="91" width="206" height="16" rx="8" fill="#F6F7F9" style="fill:#F6F7F9;fill:color(display-p3 0.9647 0.9686 0.9765);fill-opacity:1;"/>
  <rect x="37" y="19" width="192" height="16" rx="8" fill="#F6F7F9" style="fill:#F6F7F9;fill:color(display-p3 0.9647 0.9686 0.9765);fill-opacity:1;"/>
  <rect x="37" y="-5" width="206" height="16" rx="8" fill="#F6F7F9" style="fill:#F6F7F9;fill:color(display-p3 0.9647 0.9686 0.9765);fill-opacity:1;"/>
  <rect x="300" y="110" width="276" height="80" transform="rotate(180 300 110)" fill="url(#paint0_linear_624_1421)" style=""/>
  </g>
  </g>
  <defs>
  <filter id="filter0_d_624_1421" x="0" y="-47" width="326" height="244" filterUnits="userSpaceOnUse" color-interpolation-filters="sRGB">
  <feFlood flood-opacity="0" result="BackgroundImageFix"/>
  <feColorMatrix in="SourceAlpha" type="matrix" values="0 0 0 0 0 0 0 0 0 0 0 0 0 0 0 0 0 0 127 0" result="hardAlpha"/>
  <feOffset/>
  <feGaussianBlur stdDeviation="12.5"/>
  <feComposite in2="hardAlpha" operator="out"/>
  <feColorMatrix type="matrix" values="0 0 0 0 0.896 0 0 0 0 0.87 0 0 0 0 0.844 0 0 0 0.5 0"/>
  <feBlend mode="normal" in2="BackgroundImageFix" result="effect1_dropShadow_624_1421"/>
  <feBlend mode="normal" in="SourceGraphic" in2="effect1_dropShadow_624_1421" result="shape"/>
  </filter>
  <linearGradient id="paint0_linear_624_1421" x1="438" y1="110" x2="438" y2="190" gradientUnits="userSpaceOnUse">
  <stop stop-color="white" style="stop-color:white;stop-color:white;stop-opacity:1;"/>
  <stop offset="1" stop-color="white" stop-opacity="0" style="stop-color:none;stop-color:none;stop-opacity:0;"/>
  </linearGradient>
  <clipPath id="clip0_624_1421">
  <rect x="25" y="-22" width="276" height="194" rx="10" fill="white" style="fill:white;fill:white;fill-opacity:1;"/>
  </clipPath>
  </defs>
  </svg>
  