<svg width="356" height="192" viewBox="0 0 356 192" fill="none" xmlns="http://www.w3.org/2000/svg">
  <g filter="url(#filter0_d_624_2537)">
  <rect x="40" y="20" width="276" height="152" rx="10" fill="white" style="fill:white;fill:white;fill-opacity:1;"/>
  <rect x="52" y="148" width="16" height="12" rx="6" fill="#F6F7F9" style="fill:#F6F7F9;fill:color(display-p3 0.9647 0.9686 0.9765);fill-opacity:1;"/>
  <rect x="72" y="148" width="16" height="12" rx="6" fill="#F6F7F9" style="fill:#F6F7F9;fill:color(display-p3 0.9647 0.9686 0.9765);fill-opacity:1;"/>
  <rect x="92" y="148" width="16" height="12" rx="6" fill="#F6F7F9" style="fill:#F6F7F9;fill:color(display-p3 0.9647 0.9686 0.9765);fill-opacity:1;"/>
  <rect x="112" y="148" width="30" height="12" rx="6" fill="#F6F7F9" style="fill:#F6F7F9;fill:color(display-p3 0.9647 0.9686 0.9765);fill-opacity:1;"/>
  <rect x="237" y="148" width="67" height="12" rx="6" fill="#F6F7F9" style="fill:#F6F7F9;fill:color(display-p3 0.9647 0.9686 0.9765);fill-opacity:1;"/>
  <rect x="52" y="89" width="252" height="12" rx="6" fill="#F6F7F9" style="fill:#F6F7F9;fill:color(display-p3 0.9647 0.9686 0.9765);fill-opacity:1;"/>
  <rect x="52" y="107" width="199" height="12" rx="6" fill="#F6F7F9" style="fill:#F6F7F9;fill:color(display-p3 0.9647 0.9686 0.9765);fill-opacity:1;"/>
  <rect x="52" y="125" width="221" height="12" rx="6" fill="#F6F7F9" style="fill:#F6F7F9;fill:color(display-p3 0.9647 0.9686 0.9765);fill-opacity:1;"/>
  <mask id="mask0_624_2537" style="mask-type:alpha" maskUnits="userSpaceOnUse" x="52" y="32" width="39" height="39">
  <rect x="52" y="32" width="39" height="39" rx="19.5" fill="white" style="fill:white;fill:white;fill-opacity:1;"/>
  </mask>
  <g mask="url(#mask0_624_2537)">
  <rect x="52" y="32" width="39" height="39" rx="19.5" fill="#F6F7F9" style="fill:#F6F7F9;fill:color(display-p3 0.9647 0.9686 0.9765);fill-opacity:1;"/>
  </g>
  <g clip-path="url(#clip0_624_2537)">
  <rect x="201" y="32" width="103" height="41" rx="20.5" fill="#F6F7F9" style="fill:#F6F7F9;fill:color(display-p3 0.9647 0.9686 0.9765);fill-opacity:1;"/>
  <path d="M245.83 48.2727H247.142V54.4602C247.142 55.0199 247.032 55.4986 246.81 55.8963C246.591 56.294 246.283 56.598 245.885 56.8082C245.488 57.0156 245.022 57.1193 244.488 57.1193C243.996 57.1193 243.554 57.0298 243.162 56.8509C242.773 56.6719 242.465 56.4119 242.238 56.071C242.013 55.7273 241.901 55.3097 241.901 54.8182H243.209C243.209 55.0597 243.265 55.2685 243.375 55.4446C243.489 55.6207 243.644 55.7585 243.84 55.858C244.039 55.9545 244.266 56.0028 244.522 56.0028C244.8 56.0028 245.036 55.9446 245.229 55.8281C245.425 55.7088 245.574 55.5341 245.677 55.304C245.779 55.0739 245.83 54.7926 245.83 54.4602V48.2727ZM251.724 57.1321C251.11 57.1321 250.575 56.9915 250.117 56.7102C249.66 56.429 249.305 56.0355 249.052 55.5298C248.799 55.0241 248.673 54.4332 248.673 53.7571C248.673 53.0781 248.799 52.4844 249.052 51.9759C249.305 51.4673 249.66 51.0724 250.117 50.7912C250.575 50.5099 251.11 50.3693 251.724 50.3693C252.338 50.3693 252.873 50.5099 253.33 50.7912C253.788 51.0724 254.143 51.4673 254.396 51.9759C254.649 52.4844 254.775 53.0781 254.775 53.7571C254.775 54.4332 254.649 55.0241 254.396 55.5298C254.143 56.0355 253.788 56.429 253.33 56.7102C252.873 56.9915 252.338 57.1321 251.724 57.1321ZM251.728 56.0625C252.126 56.0625 252.455 55.9574 252.717 55.7472C252.978 55.5369 253.171 55.2571 253.296 54.9077C253.424 54.5582 253.488 54.1733 253.488 53.7528C253.488 53.3352 253.424 52.9517 253.296 52.6023C253.171 52.25 252.978 51.9673 252.717 51.7543C252.455 51.5412 252.126 51.4347 251.728 51.4347C251.328 51.4347 250.995 51.5412 250.731 51.7543C250.47 51.9673 250.275 52.25 250.147 52.6023C250.022 52.9517 249.96 53.3352 249.96 53.7528C249.96 54.1733 250.022 54.5582 250.147 54.9077C250.275 55.2571 250.47 55.5369 250.731 55.7472C250.995 55.9574 251.328 56.0625 251.728 56.0625ZM256.207 57V50.4545H257.481V57H256.207ZM256.851 49.4446C256.629 49.4446 256.439 49.3707 256.28 49.223C256.123 49.0724 256.045 48.8935 256.045 48.6861C256.045 48.4759 256.123 48.2969 256.28 48.1491C256.439 47.9986 256.629 47.9233 256.851 47.9233C257.072 47.9233 257.261 47.9986 257.417 48.1491C257.577 48.2969 257.656 48.4759 257.656 48.6861C257.656 48.8935 257.577 49.0724 257.417 49.223C257.261 49.3707 257.072 49.4446 256.851 49.4446ZM260.48 53.1136V57H259.206V50.4545H260.429V51.5199H260.509C260.66 51.1733 260.896 50.8949 261.217 50.6847C261.541 50.4744 261.948 50.3693 262.44 50.3693C262.886 50.3693 263.277 50.4631 263.612 50.6506C263.947 50.8352 264.207 51.1108 264.392 51.4773C264.576 51.8437 264.669 52.2969 264.669 52.8366V57H263.394V52.9901C263.394 52.5156 263.271 52.1449 263.024 51.8778C262.777 51.608 262.437 51.473 262.005 51.473C261.71 51.473 261.447 51.5369 261.217 51.6648C260.99 51.7926 260.809 51.9801 260.676 52.2273C260.545 52.4716 260.48 52.767 260.48 53.1136Z" fill="#373737" style="fill:#373737;fill:color(display-p3 0.2157 0.2157 0.2157);fill-opacity:1;"/>
  </g>
  </g>
  <defs>
  <filter id="filter0_d_624_2537" x="0" y="-16" width="356" height="232" filterUnits="userSpaceOnUse" color-interpolation-filters="sRGB">
  <feFlood flood-opacity="0" result="BackgroundImageFix"/>
  <feColorMatrix in="SourceAlpha" type="matrix" values="0 0 0 0 0 0 0 0 0 0 0 0 0 0 0 0 0 0 127 0" result="hardAlpha"/>
  <feOffset dy="4"/>
  <feGaussianBlur stdDeviation="20"/>
  <feComposite in2="hardAlpha" operator="out"/>
  <feColorMatrix type="matrix" values="0 0 0 0 0 0 0 0 0 0 0 0 0 0 0 0 0 0 0.03 0"/>
  <feBlend mode="normal" in2="BackgroundImageFix" result="effect1_dropShadow_624_2537"/>
  <feBlend mode="normal" in="SourceGraphic" in2="effect1_dropShadow_624_2537" result="shape"/>
  </filter>
  <clipPath id="clip0_624_2537">
  <rect x="201" y="32" width="103" height="41" rx="20.5" fill="white" style="fill:white;fill:white;fill-opacity:1;"/>
  </clipPath>
  </defs>
  </svg>
  