<svg width="326" height="192" viewBox="0 0 326 192" fill="none" xmlns="http://www.w3.org/2000/svg">
  <g filter="url(#filter0_d_624_1437)">
  <g clip-path="url(#clip0_624_1437)">
  <rect x="25" y="-26" width="276" height="249" rx="10" fill="white" style="fill:white;fill:white;fill-opacity:1;"/>
  <mask id="mask0_624_1437" style="mask-type:alpha" maskUnits="userSpaceOnUse" x="38" y="-36" width="39" height="39">
  <rect x="38" y="-36" width="39" height="39" rx="19.5" fill="white" style="fill:white;fill:white;fill-opacity:1;"/>
  </mask>
  <g mask="url(#mask0_624_1437)">
  <rect x="38" y="-36" width="39" height="39" rx="19.5" fill="#F6F7F9" style="fill:#F6F7F9;fill:color(display-p3 0.9647 0.9686 0.9765);fill-opacity:1;"/>
  <rect x="41.6562" y="-7.56238" width="31.6875" height="31.6875" rx="15.8438" fill="#E9EAED" style="fill:#E9EAED;fill:color(display-p3 0.9137 0.9176 0.9294);fill-opacity:1;"/>
  </g>
  <rect x="87" y="2" width="182" height="12" rx="6" fill="#F6F7F9" style="fill:#F6F7F9;fill:color(display-p3 0.9647 0.9686 0.9765);fill-opacity:1;"/>
  <rect x="42" y="30" width="248" height="1" rx="0.5" fill="#F6F7F9" style="fill:#F6F7F9;fill:color(display-p3 0.9647 0.9686 0.9765);fill-opacity:1;"/>
  <mask id="mask1_624_1437" style="mask-type:alpha" maskUnits="userSpaceOnUse" x="42" y="44" width="39" height="39">
  <rect x="42" y="44" width="39" height="39" rx="19.5" fill="white" style="fill:white;fill:white;fill-opacity:1;"/>
  </mask>
  <g mask="url(#mask1_624_1437)">
  <rect x="42" y="44" width="39" height="39" rx="19.5" fill="#F6F7F9" style="fill:#F6F7F9;fill:color(display-p3 0.9647 0.9686 0.9765);fill-opacity:1;"/>
  </g>
  <rect x="91" y="46" width="32" height="12" rx="6" fill="#E9EAED" style="fill:#E9EAED;fill:color(display-p3 0.9137 0.9176 0.9294);fill-opacity:1;"/>
  <rect x="130" y="46" width="42" height="12" rx="6" fill="#E9EAED" style="fill:#E9EAED;fill:color(display-p3 0.9137 0.9176 0.9294);fill-opacity:1;"/>
  <rect x="179" y="46" width="32" height="12" rx="6" fill="#F6F7F9" style="fill:#F6F7F9;fill:color(display-p3 0.9647 0.9686 0.9765);fill-opacity:1;"/>
  <rect x="91" y="64" width="167" height="12" rx="6" fill="#F6F7F9" style="fill:#F6F7F9;fill:color(display-p3 0.9647 0.9686 0.9765);fill-opacity:1;"/>
  <rect x="91" y="82" width="182" height="12" rx="6" fill="#F6F7F9" style="fill:#F6F7F9;fill:color(display-p3 0.9647 0.9686 0.9765);fill-opacity:1;"/>
  <rect x="38" y="105" width="252" height="41" rx="10" fill="#F6F7F9" style="fill:#F6F7F9;fill:color(display-p3 0.9647 0.9686 0.9765);fill-opacity:1;"/>
  <path d="M123.188 130H121.79L124.931 121.273H126.452L129.592 130H128.195L125.727 122.858H125.659L123.188 130ZM123.422 126.582H127.956V127.69H123.422V126.582ZM133.105 130.128C132.577 130.128 132.105 129.993 131.691 129.723C131.279 129.45 130.955 129.062 130.719 128.56C130.486 128.054 130.37 127.447 130.37 126.74C130.37 126.033 130.487 125.428 130.723 124.925C130.962 124.422 131.289 124.037 131.703 123.77C132.118 123.503 132.588 123.369 133.114 123.369C133.52 123.369 133.847 123.438 134.094 123.574C134.344 123.707 134.537 123.864 134.674 124.043C134.813 124.222 134.921 124.379 134.997 124.516H135.074V121.273H136.348V130H135.104V128.982H134.997C134.921 129.121 134.81 129.28 134.665 129.459C134.523 129.638 134.327 129.794 134.077 129.928C133.827 130.061 133.503 130.128 133.105 130.128ZM133.387 129.041C133.753 129.041 134.063 128.945 134.316 128.751C134.571 128.555 134.764 128.284 134.895 127.938C135.029 127.591 135.095 127.187 135.095 126.727C135.095 126.273 135.03 125.875 134.899 125.534C134.769 125.193 134.577 124.928 134.324 124.737C134.071 124.547 133.759 124.452 133.387 124.452C133.003 124.452 132.683 124.551 132.428 124.75C132.172 124.949 131.979 125.22 131.848 125.564C131.72 125.908 131.656 126.295 131.656 126.727C131.656 127.165 131.722 127.558 131.852 127.908C131.983 128.257 132.176 128.534 132.432 128.739C132.691 128.94 133.009 129.041 133.387 129.041ZM143.776 123.455L141.403 130H140.039L137.661 123.455H139.029L140.687 128.491H140.755L142.408 123.455H143.776ZM147.582 130.132C146.937 130.132 146.382 129.994 145.916 129.719C145.453 129.44 145.095 129.05 144.842 128.547C144.592 128.041 144.467 127.449 144.467 126.77C144.467 126.099 144.592 125.509 144.842 124.997C145.095 124.486 145.447 124.087 145.899 123.8C146.353 123.513 146.885 123.369 147.493 123.369C147.862 123.369 148.22 123.43 148.566 123.553C148.913 123.675 149.224 123.866 149.5 124.128C149.775 124.389 149.993 124.729 150.152 125.146C150.311 125.561 150.39 126.065 150.39 126.659V127.111H145.187V126.156H149.142C149.142 125.821 149.073 125.524 148.937 125.266C148.801 125.004 148.609 124.798 148.362 124.648C148.118 124.497 147.831 124.422 147.501 124.422C147.143 124.422 146.831 124.51 146.564 124.686C146.299 124.859 146.095 125.087 145.95 125.368C145.808 125.646 145.737 125.949 145.737 126.276V127.021C145.737 127.459 145.814 127.831 145.967 128.138C146.123 128.445 146.341 128.679 146.619 128.841C146.897 129 147.223 129.08 147.595 129.08C147.836 129.08 148.056 129.045 148.255 128.977C148.454 128.906 148.626 128.801 148.771 128.662C148.916 128.523 149.027 128.351 149.103 128.146L150.309 128.364C150.213 128.719 150.039 129.03 149.789 129.297C149.542 129.561 149.231 129.767 148.856 129.915C148.484 130.06 148.059 130.132 147.582 130.132ZM151.814 130V123.455H153.045V124.494H153.114C153.233 124.142 153.443 123.865 153.744 123.663C154.048 123.459 154.392 123.357 154.776 123.357C154.855 123.357 154.949 123.359 155.057 123.365C155.168 123.371 155.254 123.378 155.317 123.386V124.605C155.266 124.591 155.175 124.575 155.044 124.558C154.913 124.538 154.783 124.528 154.652 124.528C154.351 124.528 154.082 124.592 153.847 124.72C153.614 124.845 153.429 125.02 153.293 125.244C153.156 125.466 153.088 125.719 153.088 126.003V130H151.814ZM159.872 123.455V124.477H156.296V123.455H159.872ZM157.255 121.886H158.529V128.078C158.529 128.325 158.566 128.511 158.64 128.636C158.714 128.759 158.809 128.842 158.926 128.888C159.045 128.93 159.174 128.952 159.313 128.952C159.416 128.952 159.505 128.945 159.582 128.93C159.658 128.916 159.718 128.905 159.761 128.896L159.991 129.949C159.917 129.977 159.812 130.006 159.676 130.034C159.539 130.065 159.369 130.082 159.164 130.085C158.829 130.091 158.516 130.031 158.227 129.906C157.937 129.781 157.703 129.588 157.524 129.327C157.345 129.065 157.255 128.737 157.255 128.342V121.886ZM161.291 130V123.455H162.565V130H161.291ZM161.934 122.445C161.713 122.445 161.523 122.371 161.363 122.223C161.207 122.072 161.129 121.893 161.129 121.686C161.129 121.476 161.207 121.297 161.363 121.149C161.523 120.999 161.713 120.923 161.934 120.923C162.156 120.923 162.345 120.999 162.501 121.149C162.66 121.297 162.74 121.476 162.74 121.686C162.74 121.893 162.66 122.072 162.501 122.223C162.345 122.371 162.156 122.445 161.934 122.445ZM169.194 125.053L168.039 125.257C167.991 125.109 167.914 124.969 167.809 124.835C167.707 124.702 167.568 124.592 167.392 124.507C167.215 124.422 166.995 124.379 166.731 124.379C166.37 124.379 166.069 124.46 165.828 124.622C165.586 124.781 165.465 124.987 165.465 125.24C165.465 125.459 165.546 125.635 165.708 125.768C165.87 125.902 166.132 126.011 166.492 126.097L167.532 126.335C168.134 126.474 168.583 126.689 168.879 126.979C169.174 127.268 169.322 127.645 169.322 128.108C169.322 128.5 169.208 128.849 168.981 129.156C168.757 129.46 168.443 129.699 168.039 129.872C167.639 130.045 167.174 130.132 166.646 130.132C165.913 130.132 165.315 129.976 164.852 129.663C164.389 129.348 164.105 128.901 163.999 128.321L165.231 128.134C165.308 128.455 165.465 128.697 165.704 128.862C165.943 129.024 166.254 129.105 166.637 129.105C167.055 129.105 167.389 129.018 167.639 128.845C167.889 128.669 168.014 128.455 168.014 128.202C168.014 127.997 167.937 127.825 167.784 127.686C167.633 127.547 167.401 127.442 167.089 127.371L165.981 127.128C165.37 126.989 164.919 126.767 164.626 126.463C164.336 126.159 164.191 125.774 164.191 125.308C164.191 124.922 164.299 124.584 164.515 124.294C164.731 124.004 165.029 123.778 165.41 123.616C165.791 123.452 166.227 123.369 166.718 123.369C167.426 123.369 167.982 123.523 168.389 123.83C168.795 124.134 169.063 124.541 169.194 125.053ZM173.554 130.132C172.909 130.132 172.354 129.994 171.888 129.719C171.425 129.44 171.067 129.05 170.814 128.547C170.564 128.041 170.439 127.449 170.439 126.77C170.439 126.099 170.564 125.509 170.814 124.997C171.067 124.486 171.419 124.087 171.871 123.8C172.325 123.513 172.856 123.369 173.464 123.369C173.834 123.369 174.192 123.43 174.538 123.553C174.885 123.675 175.196 123.866 175.472 124.128C175.747 124.389 175.964 124.729 176.123 125.146C176.283 125.561 176.362 126.065 176.362 126.659V127.111H171.159V126.156H175.114C175.114 125.821 175.045 125.524 174.909 125.266C174.773 125.004 174.581 124.798 174.334 124.648C174.089 124.497 173.802 124.422 173.473 124.422C173.115 124.422 172.802 124.51 172.535 124.686C172.271 124.859 172.067 125.087 171.922 125.368C171.78 125.646 171.709 125.949 171.709 126.276V127.021C171.709 127.459 171.785 127.831 171.939 128.138C172.095 128.445 172.312 128.679 172.591 128.841C172.869 129 173.195 129.08 173.567 129.08C173.808 129.08 174.028 129.045 174.227 128.977C174.426 128.906 174.598 128.801 174.743 128.662C174.888 128.523 174.998 128.351 175.075 128.146L176.281 128.364C176.185 128.719 176.011 129.03 175.761 129.297C175.514 129.561 175.203 129.767 174.828 129.915C174.456 130.06 174.031 130.132 173.554 130.132ZM181.074 130V121.273H182.391V125.065H186.741V121.273H188.063V130H186.741V126.195H182.391V130H181.074ZM192.709 130.132C192.064 130.132 191.509 129.994 191.043 129.719C190.58 129.44 190.222 129.05 189.969 128.547C189.719 128.041 189.594 127.449 189.594 126.77C189.594 126.099 189.719 125.509 189.969 124.997C190.222 124.486 190.574 124.087 191.026 123.8C191.48 123.513 192.011 123.369 192.619 123.369C192.989 123.369 193.347 123.43 193.693 123.553C194.04 123.675 194.351 123.866 194.626 124.128C194.902 124.389 195.119 124.729 195.278 125.146C195.438 125.561 195.517 126.065 195.517 126.659V127.111H190.314V126.156H194.269C194.269 125.821 194.2 125.524 194.064 125.266C193.928 125.004 193.736 124.798 193.489 124.648C193.244 124.497 192.957 124.422 192.628 124.422C192.27 124.422 191.957 124.51 191.69 124.686C191.426 124.859 191.222 125.087 191.077 125.368C190.935 125.646 190.864 125.949 190.864 126.276V127.021C190.864 127.459 190.94 127.831 191.094 128.138C191.25 128.445 191.467 128.679 191.746 128.841C192.024 129 192.35 129.08 192.722 129.08C192.963 129.08 193.183 129.045 193.382 128.977C193.581 128.906 193.753 128.801 193.898 128.662C194.043 128.523 194.153 128.351 194.23 128.146L195.436 128.364C195.34 128.719 195.166 129.03 194.916 129.297C194.669 129.561 194.358 129.767 193.983 129.915C193.611 130.06 193.186 130.132 192.709 130.132ZM196.941 130V123.455H198.172V124.494H198.241C198.36 124.142 198.57 123.865 198.871 123.663C199.175 123.459 199.519 123.357 199.902 123.357C199.982 123.357 200.076 123.359 200.184 123.365C200.295 123.371 200.381 123.378 200.444 123.386V124.605C200.393 124.591 200.302 124.575 200.171 124.558C200.04 124.538 199.91 124.528 199.779 124.528C199.478 124.528 199.209 124.592 198.974 124.72C198.741 124.845 198.556 125.02 198.42 125.244C198.283 125.466 198.215 125.719 198.215 126.003V130H196.941ZM204.143 130.132C203.498 130.132 202.943 129.994 202.477 129.719C202.014 129.44 201.656 129.05 201.403 128.547C201.153 128.041 201.028 127.449 201.028 126.77C201.028 126.099 201.153 125.509 201.403 124.997C201.656 124.486 202.008 124.087 202.46 123.8C202.914 123.513 203.446 123.369 204.053 123.369C204.423 123.369 204.781 123.43 205.127 123.553C205.474 123.675 205.785 123.866 206.061 124.128C206.336 124.389 206.553 124.729 206.713 125.146C206.872 125.561 206.951 126.065 206.951 126.659V127.111H201.748V126.156H205.703C205.703 125.821 205.634 125.524 205.498 125.266C205.362 125.004 205.17 124.798 204.923 124.648C204.678 124.497 204.392 124.422 204.062 124.422C203.704 124.422 203.392 124.51 203.124 124.686C202.86 124.859 202.656 125.087 202.511 125.368C202.369 125.646 202.298 125.949 202.298 126.276V127.021C202.298 127.459 202.374 127.831 202.528 128.138C202.684 128.445 202.901 128.679 203.18 128.841C203.458 129 203.784 129.08 204.156 129.08C204.397 129.08 204.617 129.045 204.816 128.977C205.015 128.906 205.187 128.801 205.332 128.662C205.477 128.523 205.588 128.351 205.664 128.146L206.87 128.364C206.774 128.719 206.6 129.03 206.35 129.297C206.103 129.561 205.792 129.767 205.417 129.915C205.045 130.06 204.62 130.132 204.143 130.132Z" fill="#373737" style="fill:#373737;fill:color(display-p3 0.2157 0.2157 0.2157);fill-opacity:1;"/>
  <rect x="42" y="162" width="248" height="1" rx="0.5" fill="#F6F7F9" style="fill:#F6F7F9;fill:color(display-p3 0.9647 0.9686 0.9765);fill-opacity:1;"/>
  <mask id="mask2_624_1437" style="mask-type:alpha" maskUnits="userSpaceOnUse" x="42" y="176" width="39" height="39">
  <rect x="42" y="176" width="39" height="39" rx="19.5" fill="white" style="fill:white;fill:white;fill-opacity:1;"/>
  </mask>
  <g mask="url(#mask2_624_1437)">
  <rect x="42" y="176" width="39" height="39" rx="19.5" fill="#F6F7F9" style="fill:#F6F7F9;fill:color(display-p3 0.9647 0.9686 0.9765);fill-opacity:1;"/>
  </g>
  <rect x="91" y="178" width="32" height="12" rx="6" fill="#E9EAED" style="fill:#E9EAED;fill:color(display-p3 0.9137 0.9176 0.9294);fill-opacity:1;"/>
  <rect x="130" y="178" width="42" height="12" rx="6" fill="#E9EAED" style="fill:#E9EAED;fill:color(display-p3 0.9137 0.9176 0.9294);fill-opacity:1;"/>
  <rect x="179" y="178" width="32" height="12" rx="6" fill="#F6F7F9" style="fill:#F6F7F9;fill:color(display-p3 0.9647 0.9686 0.9765);fill-opacity:1;"/>
  </g>
  </g>
  <defs>
  <filter id="filter0_d_624_1437" x="0" y="-51" width="326" height="299" filterUnits="userSpaceOnUse" color-interpolation-filters="sRGB">
  <feFlood flood-opacity="0" result="BackgroundImageFix"/>
  <feColorMatrix in="SourceAlpha" type="matrix" values="0 0 0 0 0 0 0 0 0 0 0 0 0 0 0 0 0 0 127 0" result="hardAlpha"/>
  <feOffset/>
  <feGaussianBlur stdDeviation="12.5"/>
  <feComposite in2="hardAlpha" operator="out"/>
  <feColorMatrix type="matrix" values="0 0 0 0 0.896 0 0 0 0 0.87 0 0 0 0 0.844 0 0 0 0.5 0"/>
  <feBlend mode="normal" in2="BackgroundImageFix" result="effect1_dropShadow_624_1437"/>
  <feBlend mode="normal" in="SourceGraphic" in2="effect1_dropShadow_624_1437" result="shape"/>
  </filter>
  <clipPath id="clip0_624_1437">
  <rect x="25" y="-26" width="276" height="249" rx="10" fill="white" style="fill:white;fill:white;fill-opacity:1;"/>
  </clipPath>
  </defs>
  </svg>
  