<svg width="274" height="189" viewBox="0 0 274 189" fill="none" xmlns="http://www.w3.org/2000/svg">
  <g filter="url(#filter0_d_624_1320)">
  <rect x="25" y="-55" width="224" height="219" rx="10" fill="white" style="fill:white;fill:white;fill-opacity:1;"/>
  <rect x="37" y="21" width="64" height="33.11" rx="16.555" fill="#F6F7F9" style="fill:#F6F7F9;fill:color(display-p3 0.9647 0.9686 0.9765);fill-opacity:1;"/>
  <path d="M64.8578 42.8087V32.0212H65.5488V42.8087H64.8578ZM67.0195 35.367C66.9745 34.9681 66.7891 34.6591 66.4633 34.44C66.1374 34.218 65.7272 34.1071 65.2328 34.1071C64.8788 34.1071 64.5726 34.1632 64.3142 34.2756C64.0557 34.3852 63.8549 34.5369 63.7116 34.7307C63.5711 34.9217 63.5009 35.1395 63.5009 35.3839C63.5009 35.5889 63.5487 35.7659 63.6442 35.9148C63.7425 36.0637 63.8703 36.1887 64.0276 36.2899C64.1878 36.3882 64.3591 36.4711 64.5417 36.5385C64.7243 36.6031 64.8999 36.6565 65.0685 36.6986L65.9112 36.9177C66.1865 36.9851 66.4689 37.0764 66.7582 37.1916C67.0476 37.3068 67.3159 37.4585 67.5631 37.6467C67.8103 37.8349 68.0098 38.0681 68.1615 38.3462C68.316 38.6243 68.3932 38.9572 68.3932 39.3449C68.3932 39.8337 68.2668 40.2678 68.014 40.647C67.7639 41.0263 67.4001 41.3254 66.9226 41.5446C66.4478 41.7637 65.8733 41.8733 65.1991 41.8733C64.553 41.8733 63.9939 41.7707 63.522 41.5656C63.05 41.3606 62.6806 41.0698 62.4137 40.6934C62.1468 40.3141 61.9993 39.8646 61.9713 39.3449H63.2776C63.3028 39.6567 63.404 39.9166 63.581 40.1245C63.7608 40.3296 63.9897 40.4827 64.2678 40.5838C64.5487 40.6821 64.8564 40.7313 65.1907 40.7313C65.5587 40.7313 65.886 40.6737 66.1725 40.5585C66.4619 40.4405 66.6894 40.2776 66.8552 40.0697C67.0209 39.859 67.1038 39.6132 67.1038 39.3323C67.1038 39.0766 67.0307 38.8673 66.8846 38.7044C66.7414 38.5415 66.5461 38.4066 66.2989 38.2999C66.0545 38.1931 65.7778 38.099 65.4688 38.0175L64.449 37.7394C63.7579 37.5512 63.2101 37.2745 62.8056 36.9093C62.4039 36.5441 62.203 36.0609 62.203 35.4597C62.203 34.9625 62.3379 34.5284 62.6076 34.1576C62.8772 33.7868 63.2424 33.4989 63.7032 33.2938C64.1639 33.0859 64.6836 32.982 65.2623 32.982C65.8466 32.982 66.3621 33.0845 66.8088 33.2896C67.2583 33.4946 67.6122 33.777 67.8707 34.1366C68.1291 34.4933 68.264 34.9035 68.2752 35.367H67.0195ZM72.6057 41.848C72.027 41.848 71.5101 41.7482 71.055 41.5488C70.6027 41.3493 70.2445 41.0726 69.9805 40.7186C69.7192 40.3619 69.5787 39.9489 69.5591 39.4798H70.8822C70.8991 39.7354 70.9848 39.9573 71.1393 40.1456C71.2966 40.331 71.5017 40.4742 71.7545 40.5754C72.0073 40.6765 72.2883 40.7271 72.5973 40.7271C72.9372 40.7271 73.2378 40.6681 73.4991 40.5501C73.7631 40.4321 73.9696 40.2678 74.1185 40.0571C74.2674 39.8436 74.3418 39.5978 74.3418 39.3196C74.3418 39.0303 74.2674 38.776 74.1185 38.5569C73.9724 38.335 73.7575 38.1608 73.4738 38.0344C73.1928 37.908 72.8529 37.8448 72.454 37.8448H71.725V36.7829H72.454C72.7743 36.7829 73.0552 36.7253 73.2968 36.6101C73.5412 36.4949 73.7322 36.3348 73.8699 36.1297C74.0075 35.9218 74.0764 35.6788 74.0764 35.4007C74.0764 35.1338 74.016 34.9021 73.8952 34.7054C73.7772 34.506 73.6086 34.3501 73.3895 34.2377C73.1732 34.1253 72.9175 34.0691 72.6226 34.0691C72.3416 34.0691 72.079 34.1211 71.8346 34.225C71.593 34.3262 71.3963 34.4723 71.2446 34.6633C71.0929 34.8515 71.0115 35.0777 71.0002 35.3417H69.7403C69.7543 34.8754 69.892 34.4652 70.1532 34.1113C70.4173 33.7573 70.7656 33.4806 71.1983 33.2811C71.6309 33.0817 72.1113 32.982 72.6394 32.982C73.1928 32.982 73.6704 33.0901 74.0721 33.3064C74.4767 33.5199 74.7885 33.8051 75.0076 34.1618C75.2296 34.5186 75.3391 34.9091 75.3363 35.3333C75.3391 35.8165 75.2043 36.2266 74.9318 36.5638C74.6621 36.9009 74.3025 37.127 73.853 37.2422V37.3096C74.4261 37.3967 74.87 37.6243 75.1846 37.9923C75.5021 38.3603 75.6594 38.8168 75.6566 39.3618C75.6594 39.8365 75.5273 40.2621 75.2605 40.6386C74.9964 41.015 74.6354 41.3114 74.1775 41.5277C73.7196 41.7412 73.1957 41.848 72.6057 41.848Z" fill="#373737" style="fill:#373737;fill:color(display-p3 0.2157 0.2157 0.2157);fill-opacity:1;"/>
  <rect x="37" y="60.1101" width="64" height="33.11" rx="16.555" fill="#F6F7F9" style="fill:#F6F7F9;fill:color(display-p3 0.9647 0.9686 0.9765);fill-opacity:1;"/>
  <path d="M62.1626 81.9188V71.1313H62.8537V81.9188H62.1626ZM64.3244 74.4771C64.2794 74.0782 64.094 73.7692 63.7681 73.5501C63.4423 73.3281 63.0321 73.2172 62.5377 73.2172C62.1837 73.2172 61.8775 73.2734 61.619 73.3857C61.3606 73.4953 61.1597 73.647 61.0165 73.8408C60.876 74.0319 60.8058 74.2496 60.8058 74.494C60.8058 74.6991 60.8535 74.876 60.949 75.0249C61.0474 75.1738 61.1752 75.2988 61.3325 75.4C61.4926 75.4983 61.664 75.5812 61.8466 75.6486C62.0292 75.7132 62.2048 75.7666 62.3733 75.8087L63.2161 76.0278C63.4914 76.0953 63.7737 76.1866 64.0631 76.3017C64.3525 76.4169 64.6207 76.5686 64.8679 76.7568C65.1152 76.9451 65.3146 77.1782 65.4663 77.4563C65.6208 77.7345 65.6981 78.0674 65.6981 78.455C65.6981 78.9438 65.5717 79.3779 65.3188 79.7571C65.0688 80.1364 64.705 80.4356 64.2274 80.6547C63.7527 80.8738 63.1782 80.9834 62.504 80.9834C61.8578 80.9834 61.2988 80.8808 60.8268 80.6757C60.3549 80.4707 59.9855 80.1799 59.7186 79.8035C59.4517 79.4242 59.3042 78.9747 59.2761 78.455H60.5824C60.6077 78.7669 60.7088 79.0267 60.8858 79.2346C61.0656 79.4397 61.2946 79.5928 61.5727 79.6939C61.8536 79.7922 62.1612 79.8414 62.4955 79.8414C62.8635 79.8414 63.1908 79.7838 63.4774 79.6686C63.7667 79.5506 63.9943 79.3877 64.16 79.1798C64.3258 78.9691 64.4086 78.7233 64.4086 78.4424C64.4086 78.1867 64.3356 77.9775 64.1895 77.8145C64.0462 77.6516 63.851 77.5167 63.6038 77.41C63.3594 77.3032 63.0827 77.2091 62.7736 77.1277L61.7539 76.8495C61.0628 76.6613 60.515 76.3846 60.1105 76.0194C59.7087 75.6542 59.5079 75.171 59.5079 74.5698C59.5079 74.0726 59.6427 73.6386 59.9124 73.2677C60.1821 72.8969 60.5473 72.609 61.008 72.4039C61.4687 72.196 61.9885 72.0921 62.5672 72.0921C63.1515 72.0921 63.667 72.1946 64.1137 72.3997C64.5631 72.6047 64.9171 72.8871 65.1756 73.2467C65.434 73.6034 65.5689 74.0136 65.5801 74.4771H64.3244ZM70.1803 72.21V80.8401H68.874V73.5164H68.8234L66.7586 74.8648V73.6175L68.9119 72.21H70.1803ZM75.2893 80.9834C74.6235 80.9806 74.0546 80.805 73.5826 80.4566C73.1107 80.1083 72.7497 79.6012 72.4997 78.9354C72.2496 78.2696 72.1246 77.4676 72.1246 76.5293C72.1246 75.5938 72.2496 74.7946 72.4997 74.1316C72.7525 73.4686 73.1149 72.9629 73.5868 72.6146C74.0616 72.2662 74.6291 72.0921 75.2893 72.0921C75.9494 72.0921 76.5155 72.2676 76.9875 72.6188C77.4594 72.9671 77.8204 73.4728 78.0704 74.1358C78.3233 74.796 78.4497 75.5938 78.4497 76.5293C78.4497 77.4704 78.3247 78.2738 78.0746 78.9396C77.8246 79.6026 77.4636 80.1097 76.9917 80.4608C76.5197 80.8092 75.9522 80.9834 75.2893 80.9834ZM75.2893 79.8583C75.8736 79.8583 76.3301 79.5731 76.6588 79.0028C76.9903 78.4326 77.156 77.608 77.156 76.5293C77.156 75.8129 77.0802 75.2075 76.9285 74.7131C76.7796 74.2159 76.5647 73.8394 76.2837 73.5838C76.0056 73.3253 75.6741 73.1961 75.2893 73.1961C74.7077 73.1961 74.2512 73.4826 73.9197 74.0557C73.5883 74.6288 73.4211 75.4533 73.4183 76.5293C73.4183 77.2485 73.4927 77.8567 73.6416 78.3539C73.7933 78.8483 74.0082 79.2234 74.2864 79.479C74.5645 79.7318 74.8988 79.8583 75.2893 79.8583Z" fill="#373737" style="fill:#373737;fill:color(display-p3 0.2157 0.2157 0.2157);fill-opacity:1;"/>
  <rect x="37" y="111" width="199" height="41" rx="8" fill="#F6F7F9" style="fill:#F6F7F9;fill:color(display-p3 0.9647 0.9686 0.9765);fill-opacity:1;"/>
  <path d="M119.514 129.861H118.185C118.134 129.577 118.038 129.327 117.899 129.111C117.76 128.895 117.59 128.712 117.388 128.561C117.186 128.411 116.96 128.297 116.71 128.22C116.463 128.143 116.2 128.105 115.922 128.105C115.419 128.105 114.969 128.232 114.571 128.484C114.176 128.737 113.864 129.108 113.634 129.597C113.406 130.085 113.293 130.682 113.293 131.386C113.293 132.097 113.406 132.696 113.634 133.185C113.864 133.673 114.178 134.043 114.575 134.293C114.973 134.543 115.421 134.668 115.918 134.668C116.193 134.668 116.455 134.631 116.702 134.557C116.952 134.48 117.178 134.368 117.379 134.22C117.581 134.072 117.751 133.892 117.891 133.679C118.033 133.463 118.131 133.216 118.185 132.938L119.514 132.942C119.443 133.371 119.305 133.766 119.101 134.126C118.899 134.484 118.639 134.794 118.321 135.055C118.006 135.314 117.645 135.514 117.239 135.656C116.832 135.798 116.389 135.869 115.909 135.869C115.153 135.869 114.48 135.69 113.889 135.332C113.298 134.972 112.832 134.456 112.492 133.786C112.153 133.115 111.984 132.315 111.984 131.386C111.984 130.455 112.155 129.655 112.496 128.987C112.837 128.317 113.303 127.803 113.894 127.445C114.484 127.084 115.156 126.903 115.909 126.903C116.372 126.903 116.804 126.97 117.205 127.104C117.608 127.234 117.97 127.428 118.291 127.683C118.612 127.936 118.878 128.246 119.088 128.612C119.298 128.976 119.44 129.392 119.514 129.861ZM123.51 135.882C122.896 135.882 122.361 135.741 121.903 135.46C121.446 135.179 121.091 134.786 120.838 134.28C120.585 133.774 120.459 133.183 120.459 132.507C120.459 131.828 120.585 131.234 120.838 130.726C121.091 130.217 121.446 129.822 121.903 129.541C122.361 129.26 122.896 129.119 123.51 129.119C124.123 129.119 124.659 129.26 125.116 129.541C125.574 129.822 125.929 130.217 126.182 130.726C126.434 131.234 126.561 131.828 126.561 132.507C126.561 133.183 126.434 133.774 126.182 134.28C125.929 134.786 125.574 135.179 125.116 135.46C124.659 135.741 124.123 135.882 123.51 135.882ZM123.514 134.812C123.912 134.812 124.241 134.707 124.503 134.497C124.764 134.287 124.957 134.007 125.082 133.658C125.21 133.308 125.274 132.923 125.274 132.503C125.274 132.085 125.21 131.702 125.082 131.352C124.957 131 124.764 130.717 124.503 130.504C124.241 130.291 123.912 130.185 123.514 130.185C123.113 130.185 122.781 130.291 122.517 130.504C122.255 130.717 122.061 131 121.933 131.352C121.808 131.702 121.746 132.085 121.746 132.503C121.746 132.923 121.808 133.308 121.933 133.658C122.061 134.007 122.255 134.287 122.517 134.497C122.781 134.707 123.113 134.812 123.514 134.812ZM129.022 131.864V135.75H127.748V129.205H128.971V130.27H129.052C129.203 129.923 129.438 129.645 129.759 129.435C130.083 129.224 130.491 129.119 130.982 129.119C131.428 129.119 131.819 129.213 132.154 129.401C132.49 129.585 132.75 129.861 132.934 130.227C133.119 130.594 133.211 131.047 133.211 131.587V135.75H131.937V131.74C131.937 131.266 131.813 130.895 131.566 130.628C131.319 130.358 130.98 130.223 130.548 130.223C130.252 130.223 129.99 130.287 129.759 130.415C129.532 130.543 129.352 130.73 129.218 130.977C129.088 131.222 129.022 131.517 129.022 131.864ZM137.74 129.205V130.227H134.165V129.205H137.74ZM135.124 127.636H136.398V133.828C136.398 134.075 136.435 134.261 136.509 134.386C136.583 134.509 136.678 134.592 136.794 134.638C136.914 134.68 137.043 134.702 137.182 134.702C137.284 134.702 137.374 134.695 137.451 134.68C137.527 134.666 137.587 134.655 137.63 134.646L137.86 135.699C137.786 135.727 137.681 135.756 137.544 135.784C137.408 135.815 137.238 135.832 137.033 135.835C136.698 135.841 136.385 135.781 136.095 135.656C135.806 135.531 135.571 135.338 135.392 135.077C135.213 134.815 135.124 134.487 135.124 134.092V127.636ZM138.915 135.75V129.205H140.189V135.75H138.915ZM139.558 128.195C139.337 128.195 139.146 128.121 138.987 127.973C138.831 127.822 138.753 127.643 138.753 127.436C138.753 127.226 138.831 127.047 138.987 126.899C139.146 126.749 139.337 126.673 139.558 126.673C139.78 126.673 139.969 126.749 140.125 126.899C140.284 127.047 140.364 127.226 140.364 127.436C140.364 127.643 140.284 127.822 140.125 127.973C139.969 128.121 139.78 128.195 139.558 128.195ZM142.942 131.864V135.75H141.668V129.205H142.891V130.27H142.972C143.123 129.923 143.358 129.645 143.679 129.435C144.003 129.224 144.411 129.119 144.902 129.119C145.349 129.119 145.739 129.213 146.074 129.401C146.41 129.585 146.67 129.861 146.854 130.227C147.039 130.594 147.131 131.047 147.131 131.587V135.75H145.857V131.74C145.857 131.266 145.733 130.895 145.486 130.628C145.239 130.358 144.9 130.223 144.468 130.223C144.172 130.223 143.91 130.287 143.679 130.415C143.452 130.543 143.272 130.73 143.138 130.977C143.008 131.222 142.942 131.517 142.942 131.864ZM152.751 133.036V129.205H154.03V135.75H152.777V134.616H152.709C152.558 134.966 152.317 135.257 151.984 135.49C151.655 135.72 151.244 135.835 150.753 135.835C150.332 135.835 149.96 135.743 149.636 135.558C149.315 135.371 149.062 135.094 148.878 134.727C148.696 134.361 148.605 133.908 148.605 133.368V129.205H149.879V133.214C149.879 133.661 150.003 134.016 150.25 134.28C150.497 134.544 150.818 134.676 151.213 134.676C151.452 134.676 151.689 134.616 151.925 134.497C152.163 134.378 152.361 134.197 152.517 133.956C152.676 133.714 152.754 133.408 152.751 133.036ZM158.328 135.882C157.683 135.882 157.127 135.744 156.662 135.469C156.198 135.19 155.841 134.8 155.588 134.297C155.338 133.791 155.213 133.199 155.213 132.52C155.213 131.849 155.338 131.259 155.588 130.747C155.841 130.236 156.193 129.837 156.644 129.55C157.099 129.263 157.63 129.119 158.238 129.119C158.608 129.119 158.966 129.18 159.312 129.303C159.659 129.425 159.97 129.616 160.245 129.878C160.521 130.139 160.738 130.479 160.897 130.896C161.056 131.311 161.136 131.815 161.136 132.409V132.861H155.933V131.906H159.887C159.887 131.571 159.819 131.274 159.683 131.016C159.546 130.754 159.355 130.548 159.108 130.398C158.863 130.247 158.576 130.172 158.247 130.172C157.889 130.172 157.576 130.26 157.309 130.436C157.045 130.609 156.841 130.837 156.696 131.118C156.554 131.396 156.483 131.699 156.483 132.026V132.771C156.483 133.209 156.559 133.581 156.713 133.888C156.869 134.195 157.086 134.429 157.365 134.591C157.643 134.75 157.968 134.83 158.341 134.83C158.582 134.83 158.802 134.795 159.001 134.727C159.2 134.656 159.372 134.551 159.517 134.412C159.662 134.273 159.772 134.101 159.849 133.896L161.055 134.114C160.958 134.469 160.785 134.78 160.535 135.047C160.288 135.311 159.977 135.517 159.602 135.665C159.23 135.81 158.805 135.882 158.328 135.882Z" fill="#373737" style="fill:#373737;fill:color(display-p3 0.2157 0.2157 0.2157);fill-opacity:1;"/>
  <rect x="105" y="21" width="64" height="33.11" rx="16.555" fill="#F6F7F9" style="fill:#F6F7F9;fill:color(display-p3 0.9647 0.9686 0.9765);fill-opacity:1;"/>
  <path d="M133.003 42.8087V32.0212H133.694V42.8087H133.003ZM135.164 35.367C135.119 34.9681 134.934 34.6591 134.608 34.44C134.282 34.218 133.872 34.1071 133.378 34.1071C133.024 34.1071 132.717 34.1632 132.459 34.2756C132.201 34.3852 132 34.5369 131.856 34.7307C131.716 34.9217 131.646 35.1395 131.646 35.3839C131.646 35.5889 131.694 35.7659 131.789 35.9148C131.887 36.0637 132.015 36.1887 132.172 36.2899C132.333 36.3882 132.504 36.4711 132.687 36.5385C132.869 36.6031 133.045 36.6565 133.213 36.6986L134.056 36.9177C134.331 36.9851 134.614 37.0764 134.903 37.1916C135.192 37.3068 135.461 37.4585 135.708 37.6467C135.955 37.8349 136.155 38.0681 136.306 38.3462C136.461 38.6243 136.538 38.9572 136.538 39.3449C136.538 39.8337 136.412 40.2678 136.159 40.647C135.909 41.0263 135.545 41.3254 135.067 41.5446C134.593 41.7637 134.018 41.8733 133.344 41.8733C132.698 41.8733 132.139 41.7707 131.667 41.5656C131.195 41.3606 130.825 41.0698 130.559 40.6934C130.292 40.3141 130.144 39.8646 130.116 39.3449H131.422C131.448 39.6567 131.549 39.9166 131.726 40.1245C131.906 40.3296 132.135 40.4827 132.413 40.5838C132.694 40.6821 133.001 40.7313 133.336 40.7313C133.704 40.7313 134.031 40.6737 134.317 40.5585C134.607 40.4405 134.834 40.2776 135 40.0697C135.166 39.859 135.249 39.6132 135.249 39.3323C135.249 39.0766 135.176 38.8673 135.03 38.7044C134.886 38.5415 134.691 38.4066 134.444 38.2999C134.199 38.1931 133.923 38.099 133.614 38.0175L132.594 37.7394C131.903 37.5512 131.355 37.2745 130.95 36.9093C130.549 36.5441 130.348 36.0609 130.348 35.4597C130.348 34.9625 130.483 34.5284 130.752 34.1576C131.022 33.7868 131.387 33.4989 131.848 33.2938C132.309 33.0859 132.828 32.982 133.407 32.982C133.991 32.982 134.507 33.0845 134.954 33.2896C135.403 33.4946 135.757 33.777 136.016 34.1366C136.274 34.4933 136.409 34.9035 136.42 35.367H135.164ZM140.595 41.848C140.067 41.848 139.592 41.7468 139.17 41.5446C138.752 41.3395 138.417 41.0586 138.167 40.7018C137.917 40.345 137.784 39.9377 137.767 39.4798H139.031C139.062 39.8506 139.227 40.1554 139.524 40.3942C139.822 40.633 140.179 40.7524 140.595 40.7524C140.926 40.7524 141.22 40.6765 141.475 40.5248C141.734 40.3703 141.936 40.1582 142.082 39.8885C142.231 39.6188 142.305 39.3112 142.305 38.9657C142.305 38.6145 142.23 38.3013 142.078 38.026C141.926 37.7507 141.717 37.5344 141.45 37.377C141.186 37.2197 140.883 37.1397 140.54 37.1368C140.279 37.1368 140.016 37.1818 139.752 37.2717C139.488 37.3616 139.274 37.4796 139.111 37.6257L137.919 37.4487L138.403 33.0999H143.148V34.2166H139.486L139.212 36.6312H139.263C139.432 36.4682 139.655 36.332 139.933 36.2224C140.214 36.1129 140.515 36.0581 140.835 36.0581C141.36 36.0581 141.828 36.1831 142.238 36.4331C142.651 36.6831 142.975 37.0245 143.211 37.4571C143.45 37.8869 143.568 38.3813 143.565 38.9404C143.568 39.4994 143.442 39.9981 143.186 40.4363C142.933 40.8746 142.582 41.2201 142.133 41.4729C141.686 41.723 141.173 41.848 140.595 41.848Z" fill="#373737" style="fill:#373737;fill:color(display-p3 0.2157 0.2157 0.2157);fill-opacity:1;"/>
  <rect x="105" y="60.1101" width="64" height="33.11" rx="16.555" fill="#F6F7F9" style="fill:#F6F7F9;fill:color(display-p3 0.9647 0.9686 0.9765);fill-opacity:1;"/>
  <path d="M130.354 81.9188V71.1313H131.045V81.9188H130.354ZM132.516 74.4771C132.471 74.0782 132.285 73.7692 131.959 73.5501C131.633 73.3281 131.223 73.2172 130.729 73.2172C130.375 73.2172 130.069 73.2734 129.81 73.3857C129.552 73.4953 129.351 73.647 129.208 73.8408C129.067 74.0319 128.997 74.2496 128.997 74.494C128.997 74.6991 129.045 74.876 129.14 75.0249C129.239 75.1738 129.366 75.2988 129.524 75.4C129.684 75.4983 129.855 75.5812 130.038 75.6486C130.22 75.7132 130.396 75.7666 130.565 75.8087L131.407 76.0278C131.683 76.0953 131.965 76.1866 132.254 76.3017C132.544 76.4169 132.812 76.5686 133.059 76.7568C133.306 76.9451 133.506 77.1782 133.658 77.4563C133.812 77.7345 133.889 78.0674 133.889 78.455C133.889 78.9438 133.763 79.3779 133.51 79.7571C133.26 80.1364 132.896 80.4356 132.419 80.6547C131.944 80.8738 131.369 80.9834 130.695 80.9834C130.049 80.9834 129.49 80.8808 129.018 80.6757C128.546 80.4707 128.177 80.1799 127.91 79.8035C127.643 79.4242 127.495 78.9747 127.467 78.455H128.774C128.799 78.7669 128.9 79.0267 129.077 79.2346C129.257 79.4397 129.486 79.5928 129.764 79.6939C130.045 79.7922 130.352 79.8414 130.687 79.8414C131.055 79.8414 131.382 79.7838 131.669 79.6686C131.958 79.5506 132.185 79.3877 132.351 79.1798C132.517 78.9691 132.6 78.7233 132.6 78.4424C132.6 78.1867 132.527 77.9775 132.381 77.8145C132.237 77.6516 132.042 77.5167 131.795 77.41C131.551 77.3032 131.274 77.2091 130.965 77.1277L129.945 76.8495C129.254 76.6613 128.706 76.3846 128.302 76.0194C127.9 75.6542 127.699 75.171 127.699 74.5698C127.699 74.0726 127.834 73.6386 128.104 73.2677C128.373 72.8969 128.739 72.609 129.199 72.4039C129.66 72.196 130.18 72.0921 130.758 72.0921C131.343 72.0921 131.858 72.1946 132.305 72.3997C132.754 72.6047 133.108 72.8871 133.367 73.2467C133.625 73.6034 133.76 74.0136 133.771 74.4771H132.516ZM138.371 72.21V80.8401H137.065V73.5164H137.015L134.95 74.8648V73.6175L137.103 72.21H138.371ZM140.476 80.8401V79.8962L143.396 76.8706C143.708 76.5419 143.965 76.254 144.167 76.0068C144.372 75.7567 144.526 75.5194 144.627 75.2946C144.728 75.0699 144.778 74.8311 144.778 74.5783C144.778 74.2917 144.711 74.0445 144.576 73.8366C144.441 73.6259 144.257 73.4644 144.024 73.352C143.791 73.2368 143.528 73.1792 143.236 73.1792C142.927 73.1792 142.657 73.2425 142.427 73.3689C142.197 73.4953 142.02 73.6737 141.896 73.904C141.772 74.1344 141.711 74.4041 141.711 74.7131H140.468C140.468 74.1878 140.588 73.7285 140.83 73.3352C141.072 72.9419 141.403 72.6371 141.824 72.4207C142.246 72.2016 142.725 72.0921 143.261 72.0921C143.804 72.0921 144.281 72.2002 144.694 72.4165C145.11 72.63 145.434 72.9222 145.667 73.293C145.901 73.661 146.017 74.0768 146.017 74.5403C146.017 74.8606 145.957 75.1738 145.836 75.48C145.718 75.7862 145.512 76.1276 145.217 76.504C144.922 76.8776 144.511 77.3313 143.986 77.8651L142.271 79.6602V79.7234H146.156V80.8401H140.476Z" fill="#373737" style="fill:#373737;fill:color(display-p3 0.2157 0.2157 0.2157);fill-opacity:1;"/>
  <rect x="173" y="21" width="64" height="33.11" rx="16.555" fill="#F6F7F9" style="fill:#F6F7F9;fill:color(display-p3 0.9647 0.9686 0.9765);fill-opacity:1;"/>
  <path d="M200.933 42.8087V32.0212H201.624V42.8087H200.933ZM203.095 35.367C203.05 34.9681 202.864 34.6591 202.539 34.44C202.213 34.218 201.803 34.1071 201.308 34.1071C200.954 34.1071 200.648 34.1632 200.39 34.2756C200.131 34.3852 199.93 34.5369 199.787 34.7307C199.646 34.9217 199.576 35.1395 199.576 35.3839C199.576 35.5889 199.624 35.7659 199.719 35.9148C199.818 36.0637 199.946 36.1887 200.103 36.2899C200.263 36.3882 200.434 36.4711 200.617 36.5385C200.8 36.6031 200.975 36.6565 201.144 36.6986L201.987 36.9177C202.262 36.9851 202.544 37.0764 202.834 37.1916C203.123 37.3068 203.391 37.4585 203.638 37.6467C203.886 37.8349 204.085 38.0681 204.237 38.3462C204.391 38.6243 204.469 38.9572 204.469 39.3449C204.469 39.8337 204.342 40.2678 204.089 40.647C203.839 41.0263 203.475 41.3254 202.998 41.5446C202.523 41.7637 201.949 41.8733 201.274 41.8733C200.628 41.8733 200.069 41.7707 199.597 41.5656C199.125 41.3606 198.756 41.0698 198.489 40.6934C198.222 40.3141 198.075 39.8646 198.047 39.3449H199.353C199.378 39.6567 199.479 39.9166 199.656 40.1245C199.836 40.3296 200.065 40.4827 200.343 40.5838C200.624 40.6821 200.932 40.7313 201.266 40.7313C201.634 40.7313 201.961 40.6737 202.248 40.5585C202.537 40.4405 202.765 40.2776 202.93 40.0697C203.096 39.859 203.179 39.6132 203.179 39.3323C203.179 39.0766 203.106 38.8673 202.96 38.7044C202.817 38.5415 202.621 38.4066 202.374 38.2999C202.13 38.1931 201.853 38.099 201.544 38.0175L200.524 37.7394C199.833 37.5512 199.285 37.2745 198.881 36.9093C198.479 36.5441 198.278 36.0609 198.278 35.4597C198.278 34.9625 198.413 34.5284 198.683 34.1576C198.953 33.7868 199.318 33.4989 199.778 33.2938C200.239 33.0859 200.759 32.982 201.338 32.982C201.922 32.982 202.437 33.0845 202.884 33.2896C203.334 33.4946 203.688 33.777 203.946 34.1366C204.204 34.4933 204.339 34.9035 204.351 35.367H203.095ZM208.593 41.848C207.989 41.848 207.455 41.744 206.991 41.5361C206.531 41.3283 206.17 41.0417 205.908 40.6765C205.647 40.3113 205.518 39.8955 205.521 39.4292C205.518 39.064 205.592 38.7283 205.744 38.4221C205.898 38.1131 206.108 37.856 206.372 37.6509C206.636 37.4431 206.931 37.311 207.257 37.2548V37.2043C206.827 37.1003 206.483 36.87 206.224 36.5132C205.966 36.1564 205.838 35.7463 205.841 35.2827C205.838 34.8417 205.955 34.4484 206.191 34.1028C206.429 33.7545 206.757 33.4806 207.172 33.2811C207.588 33.0817 208.062 32.982 208.593 32.982C209.118 32.982 209.587 33.0831 210 33.2854C210.416 33.4848 210.743 33.7587 210.982 34.1071C211.221 34.4526 211.341 34.8445 211.344 35.2827C211.341 35.7463 211.209 36.1564 210.948 36.5132C210.687 36.87 210.347 37.1003 209.928 37.2043V37.2548C210.251 37.311 210.542 37.4431 210.801 37.6509C211.062 37.856 211.27 38.1131 211.424 38.4221C211.582 38.7283 211.662 39.064 211.664 39.4292C211.662 39.8955 211.53 40.3113 211.268 40.6765C211.007 41.0417 210.645 41.3283 210.181 41.5361C209.72 41.744 209.191 41.848 208.593 41.848ZM208.593 40.7819C208.949 40.7819 209.258 40.7229 209.52 40.6049C209.781 40.4841 209.983 40.3169 210.126 40.1034C210.27 39.8871 210.343 39.6343 210.346 39.3449C210.343 39.0443 210.264 38.7789 210.11 38.5485C209.958 38.3181 209.751 38.1369 209.49 38.0049C209.229 37.8729 208.93 37.8069 208.593 37.8069C208.253 37.8069 207.951 37.8729 207.687 38.0049C207.422 38.1369 207.215 38.3181 207.063 38.5485C206.911 38.7789 206.837 39.0443 206.84 39.3449C206.837 39.6343 206.906 39.8871 207.046 40.1034C207.189 40.3169 207.393 40.4841 207.657 40.6049C207.921 40.7229 208.233 40.7819 208.593 40.7819ZM208.593 36.766C208.879 36.766 209.133 36.7084 209.355 36.5933C209.577 36.4781 209.751 36.3179 209.878 36.1129C210.007 35.9078 210.073 35.6676 210.076 35.3923C210.073 35.1226 210.008 34.8866 209.882 34.6844C209.758 34.4821 209.586 34.3262 209.364 34.2166C209.142 34.1043 208.885 34.0481 208.593 34.0481C208.295 34.0481 208.034 34.1043 207.809 34.2166C207.587 34.3262 207.414 34.4821 207.29 34.6844C207.167 34.8866 207.106 35.1226 207.109 35.3923C207.106 35.6676 207.168 35.9078 207.295 36.1129C207.421 36.3179 207.595 36.4781 207.817 36.5933C208.042 36.7084 208.3 36.766 208.593 36.766Z" fill="#373737" style="fill:#373737;fill:color(display-p3 0.2157 0.2157 0.2157);fill-opacity:1;"/>
  <rect x="173" y="60.1101" width="64" height="33.11" rx="16.555" fill="#F6F7F9" style="fill:#F6F7F9;fill:color(display-p3 0.9647 0.9686 0.9765);fill-opacity:1;"/>
  <path d="M201.698 80.9202C201.467 80.9202 201.269 80.8387 201.103 80.6757C200.938 80.51 200.855 80.3105 200.855 80.0774C200.855 79.847 200.938 79.6504 201.103 79.4874C201.269 79.3217 201.467 79.2388 201.698 79.2388C201.928 79.2388 202.126 79.3217 202.292 79.4874C202.458 79.6504 202.54 79.847 202.54 80.0774C202.54 80.2319 202.501 80.3738 202.422 80.503C202.347 80.6294 202.245 80.7305 202.119 80.8064C201.993 80.8822 201.852 80.9202 201.698 80.9202ZM204.889 80.9202C204.658 80.9202 204.46 80.8387 204.295 80.6757C204.129 80.51 204.046 80.3105 204.046 80.0774C204.046 79.847 204.129 79.6504 204.295 79.4874C204.46 79.3217 204.658 79.2388 204.889 79.2388C205.119 79.2388 205.317 79.3217 205.483 79.4874C205.649 79.6504 205.731 79.847 205.731 80.0774C205.731 80.2319 205.692 80.3738 205.613 80.503C205.538 80.6294 205.437 80.7305 205.31 80.8064C205.184 80.8822 205.043 80.9202 204.889 80.9202ZM208.08 80.9202C207.849 80.9202 207.651 80.8387 207.486 80.6757C207.32 80.51 207.237 80.3105 207.237 80.0774C207.237 79.847 207.32 79.6504 207.486 79.4874C207.651 79.3217 207.849 79.2388 208.08 79.2388C208.31 79.2388 208.508 79.3217 208.674 79.4874C208.84 79.6504 208.923 79.847 208.923 80.0774C208.923 80.2319 208.883 80.3738 208.805 80.503C208.729 80.6294 208.628 80.7305 208.501 80.8064C208.375 80.8822 208.234 80.9202 208.08 80.9202Z" fill="#373737" style="fill:#373737;fill:color(display-p3 0.2157 0.2157 0.2157);fill-opacity:1;"/>
  </g>
  <defs>
  <filter id="filter0_d_624_1320" x="0" y="-80" width="274" height="269" filterUnits="userSpaceOnUse" color-interpolation-filters="sRGB">
  <feFlood flood-opacity="0" result="BackgroundImageFix"/>
  <feColorMatrix in="SourceAlpha" type="matrix" values="0 0 0 0 0 0 0 0 0 0 0 0 0 0 0 0 0 0 127 0" result="hardAlpha"/>
  <feOffset/>
  <feGaussianBlur stdDeviation="12.5"/>
  <feComposite in2="hardAlpha" operator="out"/>
  <feColorMatrix type="matrix" values="0 0 0 0 0.896 0 0 0 0 0.87 0 0 0 0 0.844 0 0 0 0.5 0"/>
  <feBlend mode="normal" in2="BackgroundImageFix" result="effect1_dropShadow_624_1320"/>
  <feBlend mode="normal" in="SourceGraphic" in2="effect1_dropShadow_624_1320" result="shape"/>
  </filter>
  </defs>
  </svg>
  