<svg width="326" height="192" viewBox="0 0 326 192" fill="none" xmlns="http://www.w3.org/2000/svg">
  <g filter="url(#filter0_d_624_1503)">
  <rect x="25" y="20" width="276" height="152" rx="10" fill="white" style="fill:white;fill:white;fill-opacity:1;"/>
  <rect x="37" y="32" width="252" height="63" rx="7" fill="#F6F7F9" style="fill:#F6F7F9;fill:color(display-p3 0.9647 0.9686 0.9765);fill-opacity:1;"/>
  <rect x="219" y="46" width="58" height="34" rx="17" fill="white" style="fill:white;fill:white;fill-opacity:1;"/>
  <g clip-path="url(#clip0_624_1503)">
  <rect width="22" height="22" transform="translate(227 52)" fill="white" style="fill:white;fill:white;fill-opacity:1;"/>
  <path d="M238 74C244.096 74 249 69.0959 249 63C249 56.9041 244.096 52 238 52C231.904 52 227 56.9041 227 63C227 69.0959 231.904 74 238 74Z" fill="#F6F7F9" style="fill:#F6F7F9;fill:color(display-p3 0.9647 0.9686 0.9765);fill-opacity:1;"/>
  </g>
  <path d="M257 62L261 66L265 62" stroke="#373737" style="stroke:#373737;stroke:color(display-p3 0.2157 0.2157 0.2157);stroke-opacity:1;" stroke-width="1.5" stroke-linecap="round" stroke-linejoin="round"/>
  <path d="M57.2635 55.7273V71H54.9517V58.0391H54.8622L51.2081 60.4254V58.218L55.0188 55.7273H57.2635ZM66.332 71.2536C65.1537 71.2486 64.147 70.9379 63.3118 70.3214C62.4765 69.7049 61.8377 68.8075 61.3952 67.6293C60.9527 66.451 60.7315 65.0316 60.7315 63.3711C60.7315 61.7156 60.9527 60.3011 61.3952 59.1278C61.8427 57.9545 62.484 57.0597 63.3192 56.4432C64.1594 55.8267 65.1637 55.5185 66.332 55.5185C67.5003 55.5185 68.5021 55.8292 69.3373 56.4506C70.1726 57.0671 70.8114 57.962 71.2539 59.1353C71.7013 60.3036 71.925 61.7156 71.925 63.3711C71.925 65.0366 71.7038 66.4585 71.2613 67.6367C70.8189 68.81 70.18 69.7074 69.3448 70.3288C68.5096 70.9453 67.5053 71.2536 66.332 71.2536ZM66.332 69.2624C67.3661 69.2624 68.174 68.7578 68.7557 67.7486C69.3423 66.7393 69.6356 65.2802 69.6356 63.3711C69.6356 62.1033 69.5014 61.032 69.2329 60.157C68.9694 59.277 68.5891 58.6108 68.0919 58.1584C67.5998 57.701 67.0131 57.4723 66.332 57.4723C65.3029 57.4723 64.495 57.9794 63.9084 58.9936C63.3217 60.0078 63.0259 61.467 63.0209 63.3711C63.0209 64.6438 63.1527 65.7202 63.4162 66.6001C63.6846 67.4751 64.065 68.1388 64.5571 68.5913C65.0493 69.0387 65.641 69.2624 66.332 69.2624ZM79.5077 71.2536C78.3294 71.2486 77.3227 70.9379 76.4874 70.3214C75.6522 69.7049 75.0133 68.8075 74.5709 67.6293C74.1284 66.451 73.9072 65.0316 73.9072 63.3711C73.9072 61.7156 74.1284 60.3011 74.5709 59.1278C75.0183 57.9545 75.6597 57.0597 76.4949 56.4432C77.3351 55.8267 78.3393 55.5185 79.5077 55.5185C80.676 55.5185 81.6778 55.8292 82.513 56.4506C83.3482 57.0671 83.9871 57.962 84.4295 59.1353C84.877 60.3036 85.1007 61.7156 85.1007 63.3711C85.1007 65.0366 84.8795 66.4585 84.437 67.6367C83.9945 68.81 83.3557 69.7074 82.5205 70.3288C81.6852 70.9453 80.681 71.2536 79.5077 71.2536ZM79.5077 69.2624C80.5418 69.2624 81.3496 68.7578 81.9313 67.7486C82.518 66.7393 82.8113 65.2802 82.8113 63.3711C82.8113 62.1033 82.6771 61.032 82.4086 60.157C82.1451 59.277 81.7648 58.6108 81.2676 58.1584C80.7754 57.701 80.1888 57.4723 79.5077 57.4723C78.4785 57.4723 77.6707 57.9794 77.084 58.9936C76.4974 60.0078 76.2016 61.467 76.1966 63.3711C76.1966 64.6438 76.3283 65.7202 76.5918 66.6001C76.8603 67.4751 77.2406 68.1388 77.7328 68.5913C78.225 69.0387 78.8166 69.2624 79.5077 69.2624Z" fill="#373737" style="fill:#373737;fill:color(display-p3 0.2157 0.2157 0.2157);fill-opacity:1;"/>
  <rect x="37" y="97" width="252" height="63" rx="7" fill="#F6F7F9" style="fill:#F6F7F9;fill:color(display-p3 0.9647 0.9686 0.9765);fill-opacity:1;"/>
  <rect x="219" y="111" width="58" height="34" rx="17" fill="white" style="fill:white;fill:white;fill-opacity:1;"/>
  <path d="M257 127L261 131L265 127" stroke="#373737" style="stroke:#373737;stroke:color(display-p3 0.2157 0.2157 0.2157);stroke-opacity:1;" stroke-width="1.5" stroke-linecap="round" stroke-linejoin="round"/>
  <g clip-path="url(#clip1_624_1503)">
  <path d="M238 139C244.096 139 249 134.096 249 128C249 121.904 244.096 117 238 117C231.904 117 227 121.904 227 128C227 134.096 231.904 139 238 139Z" fill="#F6F7F9" style="fill:#F6F7F9;fill:color(display-p3 0.9647 0.9686 0.9765);fill-opacity:1;"/>
  </g>
  <path d="M57.2635 120.727V136H54.9517V123.039H54.8622L51.2081 125.425V123.218L55.0188 120.727H57.2635ZM66.332 136.254C65.1537 136.249 64.147 135.938 63.3118 135.321C62.4765 134.705 61.8377 133.808 61.3952 132.629C60.9527 131.451 60.7315 130.032 60.7315 128.371C60.7315 126.716 60.9527 125.301 61.3952 124.128C61.8427 122.955 62.484 122.06 63.3192 121.443C64.1594 120.827 65.1637 120.518 66.332 120.518C67.5003 120.518 68.5021 120.829 69.3373 121.451C70.1726 122.067 70.8114 122.962 71.2539 124.135C71.7013 125.304 71.925 126.716 71.925 128.371C71.925 130.037 71.7038 131.458 71.2613 132.637C70.8189 133.81 70.18 134.707 69.3448 135.329C68.5096 135.945 67.5053 136.254 66.332 136.254ZM66.332 134.262C67.3661 134.262 68.174 133.758 68.7557 132.749C69.3423 131.739 69.6356 130.28 69.6356 128.371C69.6356 127.103 69.5014 126.032 69.2329 125.157C68.9694 124.277 68.5891 123.611 68.0919 123.158C67.5998 122.701 67.0131 122.472 66.332 122.472C65.3029 122.472 64.495 122.979 63.9084 123.994C63.3217 125.008 63.0259 126.467 63.0209 128.371C63.0209 129.644 63.1527 130.72 63.4162 131.6C63.6846 132.475 64.065 133.139 64.5571 133.591C65.0493 134.039 65.641 134.262 66.332 134.262ZM79.5077 136.254C78.3294 136.249 77.3227 135.938 76.4874 135.321C75.6522 134.705 75.0133 133.808 74.5709 132.629C74.1284 131.451 73.9072 130.032 73.9072 128.371C73.9072 126.716 74.1284 125.301 74.5709 124.128C75.0183 122.955 75.6597 122.06 76.4949 121.443C77.3351 120.827 78.3393 120.518 79.5077 120.518C80.676 120.518 81.6778 120.829 82.513 121.451C83.3482 122.067 83.9871 122.962 84.4295 124.135C84.877 125.304 85.1007 126.716 85.1007 128.371C85.1007 130.037 84.8795 131.458 84.437 132.637C83.9945 133.81 83.3557 134.707 82.5205 135.329C81.6852 135.945 80.681 136.254 79.5077 136.254ZM79.5077 134.262C80.5418 134.262 81.3496 133.758 81.9313 132.749C82.518 131.739 82.8113 130.28 82.8113 128.371C82.8113 127.103 82.6771 126.032 82.4086 125.157C82.1451 124.277 81.7648 123.611 81.2676 123.158C80.7754 122.701 80.1888 122.472 79.5077 122.472C78.4785 122.472 77.6707 122.979 77.084 123.994C76.4974 125.008 76.2016 126.467 76.1966 128.371C76.1966 129.644 76.3283 130.72 76.5918 131.6C76.8603 132.475 77.2406 133.139 77.7328 133.591C78.225 134.039 78.8166 134.262 79.5077 134.262Z" fill="#373737" style="fill:#373737;fill:color(display-p3 0.2157 0.2157 0.2157);fill-opacity:1;"/>
  <circle cx="163" cy="96" r="15" fill="white" stroke="white" style="fill:white;fill:white;fill-opacity:1;stroke:white;stroke:white;stroke-opacity:1;" stroke-width="2"/>
  <path d="M167.678 97.3216L162.83 102.17M162.83 102.17L157.981 97.3216M162.83 102.17L162.842 89.0002" stroke="#373737" style="stroke:#373737;stroke:color(display-p3 0.2157 0.2157 0.2157);stroke-opacity:1;" stroke-width="1.5" stroke-linecap="round" stroke-linejoin="round"/>
  </g>
  <defs>
  <filter id="filter0_d_624_1503" x="0" y="-5" width="326" height="202" filterUnits="userSpaceOnUse" color-interpolation-filters="sRGB">
  <feFlood flood-opacity="0" result="BackgroundImageFix"/>
  <feColorMatrix in="SourceAlpha" type="matrix" values="0 0 0 0 0 0 0 0 0 0 0 0 0 0 0 0 0 0 127 0" result="hardAlpha"/>
  <feOffset/>
  <feGaussianBlur stdDeviation="12.5"/>
  <feComposite in2="hardAlpha" operator="out"/>
  <feColorMatrix type="matrix" values="0 0 0 0 0.896 0 0 0 0 0.87 0 0 0 0 0.844 0 0 0 0.5 0"/>
  <feBlend mode="normal" in2="BackgroundImageFix" result="effect1_dropShadow_624_1503"/>
  <feBlend mode="normal" in="SourceGraphic" in2="effect1_dropShadow_624_1503" result="shape"/>
  </filter>
  <clipPath id="clip0_624_1503">
  <rect width="22" height="22" fill="white" style="fill:white;fill:white;fill-opacity:1;" transform="translate(227 52)"/>
  </clipPath>
  <clipPath id="clip1_624_1503">
  <rect width="22" height="22" fill="white" style="fill:white;fill:white;fill-opacity:1;" transform="translate(227 117)"/>
  </clipPath>
  </defs>
  </svg>
  