<svg width="14" height="9" viewBox="0 0 14 9" fill="none" xmlns="http://www.w3.org/2000/svg">
<path fill-rule="evenodd" clip-rule="evenodd" d="M0.284923 1.42246C0 1.97974 0 2.70927 0 4.16831C0 5.62736 0 6.35689 0.284923 6.91417C0.535548 7.40437 0.935459 7.80291 1.42734 8.05268C1.98653 8.33663 2.71856 8.33663 4.1826 8.33663H9.36729C10.8313 8.33663 11.5634 8.33663 12.1226 8.05268C12.6144 7.80291 13.0143 7.40437 13.265 6.91417C13.5499 6.35689 13.5499 5.62736 13.5499 4.16831C13.5499 2.70927 13.5499 1.97974 13.265 1.42246C13.0143 0.932263 12.6144 0.533719 12.1226 0.283949C11.5634 0 10.8313 0 9.36729 0H4.1826C2.71856 0 1.98653 0 1.42734 0.283949C0.935459 0.533719 0.535548 0.932263 0.284923 1.42246ZM4.17195 5.72401C4.25988 5.74868 4.33559 5.80778 4.37308 5.89079C4.43138 6.01988 4.46055 6.08447 4.46697 6.10525C4.53861 6.3371 4.41884 6.52348 4.17879 6.5537C4.15727 6.55641 4.10187 6.55641 3.99106 6.55641C3.26508 6.55641 2.90209 6.55641 2.6248 6.41466C2.38089 6.28997 2.18259 6.09101 2.05831 5.8463C1.91703 5.56809 1.91703 5.2039 1.91703 4.47552V3.86111C1.91703 3.13273 1.91703 2.76854 2.05831 2.49033C2.18259 2.24562 2.38089 2.04666 2.6248 1.92197C2.90209 1.78022 3.26508 1.78022 3.99106 1.78022C4.10188 1.78022 4.15729 1.78022 4.17881 1.78293C4.41886 1.81316 4.53862 1.99953 4.46699 2.23138C4.46056 2.25216 4.43139 2.31675 4.37308 2.44585C4.33559 2.52885 4.25989 2.58795 4.17197 2.61261C3.66055 2.75607 3.27317 3.18728 3.19481 3.72186C3.18052 3.81935 3.18052 3.93567 3.18052 4.16831C3.18052 4.40096 3.18052 4.51728 3.19481 4.61477C3.27317 5.14934 3.66054 5.58054 4.17195 5.72401ZM9.17682 5.89079C9.21431 5.80778 9.29002 5.74868 9.37795 5.72401C9.88936 5.58054 10.2767 5.14934 10.3551 4.61477C10.3694 4.51728 10.3694 4.40096 10.3694 4.16831C10.3694 3.93567 10.3694 3.81935 10.3551 3.72186C10.2767 3.18728 9.88934 2.75607 9.37792 2.61261C9.29 2.58795 9.2143 2.52885 9.17681 2.44585C9.11849 2.31672 9.08933 2.25216 9.08291 2.23138C9.01127 1.99953 9.13104 1.81316 9.37109 1.78293C9.39261 1.78022 9.44802 1.78022 9.55883 1.78022C10.2848 1.78022 10.6478 1.78022 10.9251 1.92197C11.169 2.04666 11.3673 2.24562 11.4916 2.49033C11.6329 2.76854 11.6329 3.13273 11.6329 3.86111V4.47552C11.6329 5.2039 11.6329 5.56809 11.4916 5.8463C11.3673 6.09101 11.169 6.28997 10.9251 6.41466C10.6478 6.55641 10.2848 6.55641 9.55883 6.55641C9.44803 6.55641 9.39262 6.55641 9.37111 6.5537C9.13105 6.52348 9.01128 6.3371 9.08292 6.10525C9.08934 6.08448 9.11856 6.01979 9.17682 5.89079Z" fill="#39C4FF" style="fill:#39C4FF;fill:color(display-p3 0.2235 0.7686 1.0000);fill-opacity:1;"/>
</svg>
